<svg width="190" height="190" viewBox="0 0 190 190" fill="none" xmlns="http://www.w3.org/2000/svg">
<path d="M163.415 29.0851C199.82 66.8631 198.693 127.01 160.915 163.415C123.137 199.82 62.9902 198.693 26.5854 160.915C-9.81954 123.137 -8.69295 62.9902 29.085 26.5853C66.8748 -9.81957 127.01 -8.69292 163.415 29.0851Z" fill="#FEC010"/>
<path opacity="0.4" d="M163.415 29.0851C199.82 66.8631 198.693 127.01 160.915 163.415C123.137 199.82 62.9902 198.693 26.5854 160.915C-9.81954 123.137 -8.69295 62.9902 29.085 26.5853C66.8748 -9.81957 127.01 -8.69292 163.415 29.0851Z" fill="white"/>
<g style="mix-blend-mode:multiply" opacity="0.4">
<path d="M37.0184 85.3591C41.7832 90.2999 41.6307 98.1748 36.6899 102.94C31.749 107.704 23.8742 107.552 19.1094 102.611C14.3446 97.6701 14.4972 89.7953 19.438 85.0305C24.3788 80.2657 32.2536 80.4183 37.0184 85.3591Z" fill="#FEC010"/>
<path d="M50.0666 134.732C53.3762 138.159 53.2705 143.628 49.8436 146.926C46.4168 150.235 40.9479 150.13 37.6501 146.703C34.3405 143.276 34.4461 137.807 37.873 134.509C41.2999 131.2 46.7688 131.305 50.0666 134.732Z" fill="#FEC010"/>
<path d="M92.8114 84.9836C92.6588 93.3983 85.7111 100.088 77.2964 99.9353C68.8818 99.7827 62.1923 92.835 62.3448 84.4203C62.5091 76.0057 69.4451 69.3162 77.8597 69.4805C86.2744 69.6331 92.9639 76.5807 92.8114 84.9954V84.9836Z" fill="#FEC010"/>
<path d="M109.18 145.881C109.028 154.296 102.08 160.985 93.6656 160.833C85.2509 160.68 78.5614 153.733 78.714 145.318C78.8783 136.903 85.8142 130.214 94.2289 130.366C102.644 130.519 109.333 137.466 109.18 145.881Z" fill="#FEC010"/>
<path d="M112.821 26.3037C117.585 31.2445 117.433 39.1194 112.492 43.8842C107.551 48.649 99.6764 48.4964 94.9116 43.5555C90.1468 38.6147 90.2994 30.7399 95.2402 25.9751C100.181 21.2103 108.056 21.3629 112.821 26.3037Z" fill="#FEC010"/>
<path d="M58.6136 30.6227C61.9231 34.0496 61.8175 39.5185 58.3906 42.8163C54.9637 46.1258 49.4948 46.0202 46.1852 42.5933C42.8757 39.1664 42.9813 33.6975 46.4082 30.3997C49.8351 27.0902 55.3041 27.1957 58.6019 30.6344L58.6136 30.6227Z" fill="#FEC010"/>
<path d="M144.673 82.7655C147.982 86.1924 147.877 91.6613 144.45 94.9591C141.023 98.2686 135.554 98.163 132.256 94.7361C128.946 91.3092 129.052 85.8403 132.479 82.5425C135.906 79.233 141.375 79.3386 144.673 82.7655Z" fill="#FEC010"/>
<path d="M153.03 128.618C156.34 132.045 156.234 137.514 152.807 140.811C149.38 144.121 143.911 144.015 140.602 140.588C137.292 137.161 137.398 131.693 140.825 128.395C144.252 125.085 149.721 125.191 153.018 128.618H153.03Z" fill="#FEC010"/>
</g>
</svg>
