<svg width="220" height="220" viewBox="0 0 220 220" fill="none" xmlns="http://www.w3.org/2000/svg">
<path d="M110 220C170.751 220 220 170.751 220 110C220 49.2487 170.751 0 110 0C49.2487 0 0 49.2487 0 110C0 170.751 49.2487 220 110 220Z" fill="#579EF2"/>
<path opacity="0.3" d="M110 220C170.751 220 220 170.751 220 110C220 49.2487 170.751 0 110 0C49.2487 0 0 49.2487 0 110C0 170.751 49.2487 220 110 220Z" fill="white"/>
<g style="mix-blend-mode:multiply" opacity="0.39">
<path d="M12.7551 58.6527C39.0894 61.4874 50.9146 54.1742 96.7228 28.3767C143.94 1.79088 179.047 24.0659 186.326 30.7753C195.317 39.4304 202.966 49.7628 208.769 61.6216C209.708 63.5338 166.651 33.5932 73.4916 74.7887C25.7545 95.8896 2.82524 87.0165 2.43945 87.0668C4.5529 77.1705 8.00825 67.6097 12.7383 58.6527H12.7551Z" fill="#579EF2"/>
</g>
<g style="mix-blend-mode:multiply" opacity="0.39">
<path d="M11.2284 158.388C6.96792 149.682 3.96551 140.675 2.13721 131.6C24.0097 146.613 65.289 140.977 120.792 104.73C166.483 74.8729 201.69 80.4249 217.223 85.5072C221.768 105.333 220.611 125.646 214.488 144.315C191.828 131.684 144.091 123.465 96.7057 144.415C64.8865 158.488 43.5004 166.036 12.9728 161.709C12.3857 160.602 11.7987 159.511 11.2452 158.388H11.2284Z" fill="#579EF2"/>
</g>
<g style="mix-blend-mode:multiply" opacity="0.39">
<path d="M66.5633 211.022C61.0784 208.674 55.778 205.89 50.7124 202.669C64.5672 199.851 85.5676 192.689 121.714 175.211C157.609 157.85 183.289 170.951 196.155 178.415C190.183 185.946 183.172 192.739 175.188 198.593C159.052 191.196 137.783 186.986 107.356 198.694C92.864 204.279 76.946 208.104 66.5465 211.056L66.5633 211.022Z" fill="#579EF2"/>
</g>
</svg>
