<svg width="200" height="200" viewBox="0 0 200 200" fill="none" xmlns="http://www.w3.org/2000/svg">
<path d="M100 200C155.228 200 200 155.228 200 100C200 44.7715 155.228 0 100 0C44.7716 0 0 44.7715 0 100C0 155.228 44.7716 200 100 200Z" fill="#EDF6FF"/>
<path opacity="0.1" d="M100 200C155.228 200 200 155.228 200 100C200 44.7715 155.228 0 100 0C44.7716 0 0 44.7715 0 100C0 155.228 44.7716 200 100 200Z" fill="#F3EACF"/>
<g opacity="0.15">
<mask id="mask0_107_7" style="mask-type:luminance" maskUnits="userSpaceOnUse" x="0" y="0" width="200" height="200">
<path d="M100 200C155.229 200 200 155.228 200 100C200 44.7715 155.229 0 100 0C44.7716 0 0 44.7715 0 100C0 155.228 44.7716 200 100 200Z" fill="white"/>
</mask>
<g mask="url(#mask0_107_7)">
<path d="M119.215 49.624L74.529 68.8252C69.9563 70.7896 64.6487 68.6756 62.6843 64.103C60.72 59.5238 62.8339 54.2226 67.4065 52.2583L93.6522 40.9795C98.2248 39.0151 100.345 33.7075 98.3744 29.1348C96.4101 24.5622 91.1024 22.4417 86.5298 24.4126L-43.8722 80.4487C-48.4449 82.4131 -50.5653 87.7208 -48.5945 92.2934C-46.6301 96.8726 -41.3225 98.9865 -36.7498 97.0157L-35.7091 96.5669C-31.1364 94.6025 -25.8287 96.7165 -23.8644 101.289C-21.9 105.862 -24.014 111.169 -28.5867 113.134L-236.132 202.31L-229.009 218.884L-372.199 280.41L-365.077 296.983L-300.129 269.079L-293.007 285.652L66.4244 131.21C70.9971 129.245 73.1175 123.938 71.1466 119.365C69.1823 114.786 63.8746 112.672 59.302 114.643L-9.48948 144.199C-14.0621 146.164 -19.3698 144.05 -21.3342 139.477C-23.2985 134.898 -21.1846 129.597 -16.6119 127.632L126.337 66.2104C130.91 64.2461 133.03 58.9384 131.059 54.3657C129.095 49.7931 123.787 47.6726 119.215 49.6435V49.624Z" fill="#66ACFF"/>
<path d="M575.07 -126.238L547.003 -114.178C542.593 -112.279 537.305 -113.957 535.133 -118.237C532.745 -122.927 534.846 -128.579 539.601 -130.628L553.313 -136.521C557.723 -138.421 560.149 -143.403 558.542 -147.93C556.779 -152.893 551.238 -155.261 546.476 -153.212L428.602 -102.561C424.192 -100.662 421.766 -95.6796 423.372 -91.1525C425.135 -86.196 430.677 -83.8219 435.438 -85.8708L463.785 -98.0537C468.195 -99.953 473.483 -98.2749 475.662 -93.9949C478.049 -89.3052 475.948 -83.6528 471.193 -81.6039L236.056 19.4304L243.179 36.0038L108.275 93.9718C103.703 95.9362 101.582 101.244 103.553 105.816C105.518 110.396 110.825 112.51 115.398 110.539L212.894 68.6433L220.016 85.2168L517.915 -42.7851C522.325 -44.6844 524.751 -49.6668 523.145 -54.1939C521.382 -59.1504 515.84 -61.5245 511.079 -59.4756L462.705 -38.6873C458.132 -36.7229 452.825 -38.8368 450.86 -43.4095C448.896 -47.9887 451.01 -53.2898 455.583 -55.2542L581.913 -109.541C586.323 -111.44 588.749 -116.422 587.142 -120.95C585.38 -125.912 579.838 -128.28 575.076 -126.231L575.07 -126.238Z" fill="#66ACFF"/>
<path d="M174.851 177.059L146.784 189.119C142.374 191.018 137.086 189.34 134.907 185.06C132.52 180.37 134.621 174.718 139.376 172.669L153.087 166.776C157.497 164.876 159.923 159.894 158.317 155.367C156.554 150.404 151.012 148.036 146.251 150.085L28.3764 200.736C23.9664 202.635 21.5402 207.617 23.1468 212.144C24.9096 217.101 30.4514 219.475 35.2127 217.426L63.5592 205.243C67.9693 203.344 73.2574 205.022 75.4364 209.302C77.8236 213.992 75.7226 219.644 70.9678 221.693L-164.169 322.727L-157.047 339.301L-291.95 397.269C-296.529 399.233 -298.643 404.541 -296.672 409.113C-294.708 413.693 -289.4 415.806 -284.828 413.836L-228.167 389.489L-221.045 406.063L117.69 260.512C122.1 258.612 124.526 253.63 122.919 249.103C121.156 244.14 115.615 241.772 110.853 243.821L62.4795 264.61C57.9068 266.574 52.5991 264.46 50.6348 259.887C48.6704 255.308 50.7844 250.007 55.3571 248.043L181.687 193.756C186.097 191.857 188.523 186.874 186.917 182.347C185.154 177.384 179.612 175.017 174.851 177.066V177.059Z" fill="#66ACFF"/>
<path d="M147.399 56.252C152.31 56.252 156.291 52.2711 156.291 47.3604C156.291 42.4497 152.31 38.4688 147.399 38.4688C142.489 38.4688 138.508 42.4497 138.508 47.3604C138.508 52.2711 142.489 56.252 147.399 56.252Z" fill="#66ACFF"/>
</g>
</g>
</svg>
