<svg width="1388" height="946" viewBox="0 0 1388 946" fill="none" xmlns="http://www.w3.org/2000/svg">
<path opacity="0.1" d="M1293.74 254.445C1306.32 288.991 1301.75 328.064 1282.48 369.256C1263.2 410.456 1229.26 453.668 1183.28 496.35C1091.34 581.709 951.512 664.738 785.581 725.132C619.65 785.526 459.165 811.802 333.866 805.512C271.213 802.367 217.433 791.084 176.184 771.914C134.942 752.747 106.329 725.751 93.755 691.205C81.1811 656.658 85.7474 617.586 105.02 576.393C124.297 535.194 158.241 491.981 204.215 449.3C296.157 363.94 435.985 280.911 601.916 220.517C767.848 160.123 928.332 133.848 1053.63 140.137C1116.28 143.282 1170.06 154.566 1211.31 173.736C1252.56 192.902 1281.17 219.899 1293.74 254.445Z" stroke="#579EF2" stroke-width="3" stroke-linecap="round"/>
<ellipse opacity="0.2" cx="693.799" cy="473.344" rx="526" ry="214.012" transform="rotate(-20 693.799 473.344)" fill="#447FE0"/>
<path opacity="0.2" d="M1084.72 326.219C1092.34 347.154 1088.93 371.146 1075.94 396.742C1062.94 422.34 1040.42 449.405 1010.08 476.326C949.403 530.161 857.713 583.208 749.378 622.638C641.043 662.069 536.706 680.37 455.623 678.131C415.077 677.01 380.425 670.756 354.015 659.5C327.608 648.246 309.576 632.057 301.956 611.122C294.337 590.187 297.744 566.195 310.739 540.599C323.735 515.001 346.259 487.936 376.6 461.016C437.273 407.18 528.964 354.134 637.299 314.703C745.633 275.272 849.97 256.971 931.054 259.211C971.6 260.331 1006.25 266.585 1032.66 277.841C1059.07 289.096 1077.1 305.285 1084.72 326.219Z" stroke="#447FE0" stroke-width="3" stroke-linecap="round"/>
</svg>
