<?xml version="1.0" encoding="UTF-8"?><svg xmlns="http://www.w3.org/2000/svg" viewBox="0 0 362.51 314.79"><defs><style>.b,.c,.d,.e,.f,.g,.h{mix-blend-mode:multiply;}.b,.c,.i,.j,.k,.l,.m,.n,.o,.p,.q,.r{stroke-width:0px;}.b,.g{opacity:.33;}.b,.k{fill:#505eb2;}.s{opacity:.6;}.t{isolation:isolate;}.c{opacity:.43;}.c,.j{fill:#5d99c5;}.d{opacity:.16;}.e{opacity:.25;}.f{opacity:.34;}.h{opacity:.35;}.i{fill:#616bc8;}.l{fill:#27385e;}.m{fill:#4f2b2b;}.n{fill:#2c3c67;}.o{fill:#a6d55d;}.p{fill:#fff;}.q{fill:#f0c230;}.r{fill:#f1c797;}</style></defs><g class="t"><g id="a"><path class="j" d="m334.43,155.7c.02,1.56,0,3.13-.03,4.69,0,.57-.02,1.14-.04,1.7,0,.84-.05,1.67-.08,2.49-.03.51-.06,1.01-.09,1.51-.04.95-.1,1.89-.17,2.84-.89,11.99-3.18,24.06-6.96,36.03-17.79,56.1-64.09,95.25-117.88,106.51-.03.01-.05.01-.08.02-10.88,2.28-22.07,3.4-33.39,3.3-13.23-.12-26.62-1.91-39.92-5.54,0,0,0,0-.02-.01-2.09-.55-4.19-1.17-6.27-1.84-8.36-2.65-16.35-5.93-23.93-9.79,0-.01-.02-.01-.02-.01-19.37-9.85-36.05-23.39-49.41-39.47-.02-.02-.04-.03-.05-.05h0c-17.84-21.5-29.77-47.48-34.35-75.2-.49-2.95-.9-5.94-1.21-8.92-.44-4.18-.72-8.37-.83-12.59-.05-2.28-.06-4.57-.02-6.87.27-14.63,2.61-29.47,7.21-44.12l.16-.52c.23-.72.47-1.47.72-2.19l.14-.42C48.93,44.6,105.78,3.74,168.29.25c.34-.02.66-.04.99-.04h0c8.69-.44,17.47-.15,26.28.9,9.69,1.15,19.39,3.24,29.03,6.28,9.61,3.06,18.73,6.93,27.28,11.54,19.53,10.53,36.19,24.88,49.32,41.76,4.2,5.4,8.05,11.07,11.51,16.98,4.35,7.37,8.07,15.1,11.16,23.08.26.68.52,1.36.76,2.05.51,1.35.99,2.71,1.46,4.09.2.61.4,1.21.61,1.82.25.77.49,1.53.73,2.31.18.6.37,1.19.55,1.81.03.13.09.27.12.41.19.68.4,1.36.59,2.05.58,2.06,1.11,4.12,1.58,6.2.16.71.32,1.41.49,2.12.15.7.31,1.42.45,2.13.14.7.29,1.41.42,2.12.14.71.27,1.43.4,2.13.48,2.68.89,5.36,1.22,8.05.11.9.21,1.8.3,2.7.17,1.44.32,2.87.41,4.31.1,1.26.19,2.51.25,3.77.02.33.03.65.05.97.03.57.06,1.15.08,1.72v.14c.06,1.35.1,2.7.1,4.05Z"/><path class="o" d="m195.56,1.11c-.56.79-1.28,1.52-1.98,2.12-5.82,5.02-15.92,9.65-15.02,18.68.42,4.21,1.99,8.59.4,12.51-.96,2.36-3,4.3-3.32,6.83-.43,3.39,2.33,6.23,3.79,9.31,3.5,7.37-2.01,17.4-10.1,18.39-2.13.26-4.75.24-5.77,2.13-.41.76-.43,1.67-.43,2.54,0,4.24.23,8.53-.65,12.68s-3.07,8.24-6.76,10.32c-10.42,5.87-21.12-.52-26.76,13.05-3.55,8.53-4.81,17.19-15.37,19.25-13.63,2.66-31.85.95-39.91,14.83-1.29,2.23-2.16,4.68-3.59,6.81-2.2,3.28-5.57,5.53-8.86,7.7-12.9,8.55-25.84,17.12-39.48,24.4-.49-2.95-.9-5.94-1.22-8.93-.43-4.1-.71-8.22-.83-12.37-.05-2.28-.06-4.56-.02-6.87.27-14.63,2.61-29.47,7.21-44.12l.16-.53c.23-.72.47-1.46.72-2.18l.14-.42C48.93,44.6,105.77,3.73,168.29.25c.33-.02.66-.04.99-.05,8.68-.43,17.46-.14,26.28.91Z"/><path class="o" d="m316.54,179.35c-4.99,3.78-7.15,9.76-13.27,12.67-2.12,1-4.51,1.66-6.13,3.35-1.16,1.21-1.8,2.83-2.78,4.19-3.09,4.26-9.08,5.45-12.53,9.41-3.51,4.03-3.65,9.94-5.78,14.85-2.68,6.15-8.33,10.39-13.75,14.35-2.28,1.66-4.56,3.32-6.84,4.99-5.67,4.13-11.48,8.34-18.21,10.31-1.27.37-2.62.69-3.59,1.59-1.28,1.2-1.55,3.09-1.89,4.81-1.37,7.1-5.1,13.73-10.46,18.58-.84.75-1.76,1.5-2.88,1.71-2.03.38-4.03-1.24-4.75-3.18-.73-1.95-.48-4.1-.14-6.15,2.69-15.78,10.85-31.05,8.69-46.9-.54-4.06-1.77-8.12-1.09-12.15.45-2.64,1.71-5.15,1.73-7.83.04-5.54-5.15-9.7-10.29-11.75-5.15-2.06-10.9-3.01-15.24-6.45-4.38-3.48-8-8.29-12.12-12.11-2.89-2.68-7.36-5.95-9-9.54-3.73-8.19,5.94-14.15,13.39-13.14,4.22.57,8,2.83,11.58,5.14,1.14.75,2.44,1.53,3.78,1.25,1.31-.26,2.2-1.45,3.26-2.27,1.78-1.39,5.52-2.22,7.76-2.17,2.7.07,6.1,2.8,8.72,1.48.96-.5,1.58-1.45,2.15-2.38,1.01-1.61,2.06-3.27,3.62-4.36,1.57-1.1,3.79-1.48,5.35-.39.42.28.79.66,1.27.75.75.15,1.45-.41,1.99-.95,2.37-2.31,5.15-5.06,8.4-4.46.87.16,1.68.57,2.56.7,3.93.56,7.12-3.68,10.83-4.49,4.47-.97,8.57,1.21,12.82,2.64,2.86.96,5.93,1.94,8.82,1.08,1.95-.58,3.79-2.45,3.29-4.41-.27-1.04-1.1-1.83-1.96-2.48-2.41-1.88-5.18-3.27-8.13-4.08-1.55-.42-3.25-.75-4.37-1.91-.69-.71-1.09-1.68-1.87-2.3-1-.78-2.46-.85-3.3-1.8-.62-.71-.74-1.73-1.21-2.55-1.05-1.8-3.61-2.1-5.58-1.42s-3.59,2.09-5.4,3.11c-9.04,5.02-17.79-1.19-27.28.76-4.69.96-7.45,2.5-12.4,1.48-5.71-1.17-10.86-.44-7.86-7.25,1.26-2.88,3.73-6.39,6.2-8.42.73-.59,1.52-1.14,2.16-1.86.73-.83,1.2-1.86,1.58-2.9,1.18-3.15,1.7-6.55,1.51-9.91-.11-2.21-.53-4.41-.35-6.62.94-11.22,15.6-11.91,20.27-20.11,4.62-8.13-3.37-18.71-.13-27.48.28-.77.67-1.54,1.33-2,.72-.5,1.64-.59,2.48-.87,3.19-1.09,4.53-4.78,5.41-8.04,1.15-4.26,2.28-8.66,4.84-12.27.04-.04.07-.1.1-.15,19.53,10.53,36.2,24.87,49.32,41.75,4.2,5.41,8.05,11.07,11.51,16.98,4.35,7.37,8.07,15.1,11.16,23.09.26.68.52,1.35.77,2.04.51,1.36.99,2.72,1.46,4.1.2.61.41,1.21.61,1.82.25.77.5,1.53.74,2.31.18.6.36,1.2.54,1.81.04.13.09.26.12.41.2.68.4,1.37.59,2.05.57,2.05,1.1,4.13,1.59,6.2.16.71.32,1.41.48,2.12.15.7.31,1.42.45,2.13.14.7.29,1.41.42,2.12.14.71.26,1.43.4,2.13.48,2.67.88,5.35,1.22,8.04.11.9.21,1.8.31,2.7.15,1.44.28,2.88.4,4.32.1,1.26.19,2.51.25,3.77.02.32.03.64.06.97.02.57.05,1.15.08,1.72,0,.05,0,.1,0,.15.05,1.35.08,2.69.1,4.04.02,1.57.01,3.13-.02,4.69-.01.57-.02,1.14-.04,1.7-.02.84-.06,1.68-.09,2.5-.02.5-.05,1-.08,1.51-.04.95-.1,1.89-.18,2.83-.31,4.19-14.66,8.17-17.48,10.31Z"/><path class="c" d="m334.43,155.69c.02,1.56.01,3.13-.02,4.69-.01.57-.02,1.14-.04,1.7-.01.84-.05,1.67-.09,2.5-.02.51-.05,1-.09,1.51-.04.95-.1,1.89-.17,2.84-.88,11.99-3.17,24.06-6.96,36.03-17.79,56.11-64.09,95.25-117.87,106.51-10.91,2.29-22.12,3.42-33.48,3.33-13.22-.12-26.62-1.92-39.92-5.54,0,0-.01,0-.02-.01-2.09-.55-4.19-1.17-6.26-1.84-8.36-2.65-16.36-5.93-23.93-9.79-.01-.01-.02-.01-.02-.01-19.39-9.86-36.08-23.41-49.46-39.51h-.01c-12.65-15.25-22.34-32.76-28.52-51.53,11.3,11.19,24.42,20.76,39.08,28.21,0,0,.01,0,.02.01,7.58,3.86,15.57,7.15,23.93,9.79,2.08.67,4.17,1.29,6.26,1.84.01.01.02.01.02.01,13.3,3.63,26.7,5.42,39.92,5.54,11.35.1,22.56-1.03,33.48-3.33,53.78-11.26,100.08-50.4,117.87-106.51,3.79-11.97,6.08-24.04,6.96-36.03.08-.95.13-1.89.17-2.84.03-.51.06-1,.09-1.51.03-.83.08-1.66.09-2.5.02-.56.03-1.13.04-1.7.03-1.56.04-3.13.02-4.69,0-1.35-.03-2.7-.1-4.05v-.14c-.02-.57-.05-1.15-.08-1.72-.02-.32-.03-.63-.05-.97-.06-1.26-.15-2.51-.25-3.77-.1-1.44-.25-2.87-.41-4.32-.1-.9-.19-1.8-.3-2.7-.33-2.69-.74-5.37-1.23-8.05-.13-.7-.26-1.42-.4-2.13-.13-.71-.28-1.42-.42-2.12-.14-.71-.3-1.43-.45-2.13-.16-.71-.32-1.41-.48-2.12-.47-2.08-1-4.14-1.58-6.2-.19-.69-.4-1.37-.59-2.06-.03-.14-.09-.28-.12-.41-.18-.61-.37-1.21-.55-1.81-.24-.77-.48-1.54-.73-2.31-.05-.15-.1-.29-.15-.44,4.86,4.8,9.38,9.9,13.55,15.26,4.21,5.4,8.05,11.07,11.51,16.98,4.35,7.37,8.07,15.1,11.16,23.08.26.68.52,1.36.76,2.04.51,1.36.99,2.71,1.45,4.09.2.61.41,1.22.61,1.82.25.77.49,1.54.73,2.31.18.6.37,1.19.55,1.81.03.13.09.27.12.41.19.69.4,1.37.59,2.06.58,2.06,1.11,4.12,1.58,6.2.16.71.32,1.41.48,2.12.15.7.31,1.42.45,2.13.14.7.29,1.41.42,2.12.14.71.27,1.43.4,2.13.48,2.68.89,5.36,1.23,8.05.11.9.2,1.8.3,2.7.16,1.44.31,2.87.41,4.31.1,1.26.18,2.51.25,3.77.02.33.03.65.05.97.02.57.05,1.15.08,1.72v.14c.06,1.35.1,2.7.1,4.05Z"/><path class="c" d="m334.43,155.69c.02,1.56.01,3.13-.02,4.69-.01.57-.02,1.14-.04,1.7-.01.84-.05,1.67-.09,2.5-.02.51-.05,1-.09,1.51-.04.95-.1,1.89-.17,2.84-.88,11.99-3.17,24.06-6.96,36.03-17.79,56.11-64.09,95.25-117.87,106.51-10.91,2.29-22.12,3.42-33.48,3.33-13.22-.12-26.62-1.92-39.92-5.54,0,0-.01,0-.02-.01-2.09-.55-4.19-1.17-6.26-1.84-8.36-2.65-16.36-5.93-23.93-9.79-.01-.01-.02-.01-.02-.01-19.39-9.86-36.08-23.41-49.46-39.51h-.01c-7.59-9.15-14.1-19.09-19.42-29.63.28.36.57.72.87,1.08h.01c13.38,16.11,30.06,29.67,49.46,39.52,0,0,.01,0,.02.01,7.58,3.86,15.57,7.15,23.93,9.79,2.08.67,4.18,1.29,6.26,1.84.01.01.02.01.02.01,13.3,3.63,26.7,5.42,39.92,5.54,11.35.1,22.56-1.03,33.48-3.33,53.78-11.26,100.08-50.4,117.87-106.51,3.79-11.97,6.08-24.04,6.96-36.03.08-.95.13-1.89.17-2.84.03-.51.06-1,.09-1.51.03-.83.08-1.66.09-2.5.02-.56.03-1.13.04-1.7.03-1.56.04-3.13.02-4.69,0-1.35-.03-2.7-.1-4.05v-.14c-.02-.57-.05-1.15-.08-1.72-.02-.32-.03-.63-.05-.97-.06-1.26-.15-2.51-.25-3.77-.1-1.44-.25-2.87-.41-4.31-.1-.9-.19-1.8-.3-2.7-.33-2.69-.74-5.37-1.23-8.05-.13-.7-.26-1.42-.4-2.13-.13-.71-.28-1.42-.42-2.12-.14-.71-.3-1.43-.45-2.13-.16-.71-.32-1.41-.48-2.12-.47-2.08-1-4.14-1.58-6.2-.19-.69-.4-1.37-.59-2.06-.03-.14-.09-.28-.12-.41-.18-.61-.37-1.21-.55-1.81-.24-.77-.48-1.54-.73-2.31-.2-.6-.41-1.21-.61-1.82-.46-1.38-.95-2.73-1.45-4.09-.25-.69-.51-1.37-.76-2.04-1.89-4.89-4.02-9.68-6.39-14.35.77.94,1.53,1.88,2.27,2.84,4.21,5.4,8.05,11.07,11.51,16.98,4.35,7.37,8.07,15.1,11.16,23.08.26.68.52,1.36.76,2.04.51,1.36.99,2.71,1.45,4.09.2.61.41,1.22.61,1.82.25.77.49,1.54.73,2.31.18.6.37,1.19.55,1.81.03.13.09.27.12.41.19.69.4,1.37.59,2.06.58,2.06,1.11,4.12,1.58,6.2.16.71.32,1.41.48,2.12.15.7.31,1.42.45,2.13.14.7.29,1.41.42,2.12.14.71.27,1.43.4,2.13.48,2.68.89,5.36,1.23,8.05.11.9.2,1.8.3,2.7.16,1.44.31,2.87.41,4.31.1,1.26.18,2.51.25,3.77.02.33.03.65.05.97.02.57.05,1.15.08,1.72v.14c.06,1.35.1,2.7.1,4.05Z"/><path class="o" d="m209.1,311.49c-10.88,2.28-22.07,3.4-33.39,3.3-13.23-.12-26.62-1.91-39.92-5.54,0,0,0,0-.02-.01-2.09-.55-4.19-1.17-6.27-1.84-8.36-2.65-16.35-5.93-23.93-9.79,0-.01-.02-.01-.02-.01-19.37-9.85-36.05-23.39-49.41-39.47,1.31-.92,29.42-6.88,31.78-8.28,11.58-6.86,19.2-18.86,30.99-25.56,3.37-1.92,7.19-3.47,9.49-6.63,1.26-1.73,1.95-3.84,3.36-5.45,7.05-8.07,16.81-1.44,16.44,7.75-.59,14.72-3.79,32.42,4.85,45.6,1.02,1.56,2.23,3.09,3.89,3.95,1.51.77,3.25.93,4.95,1.09,8.74.82,17.43,2.14,26.01,3.93,1.51.32,3.05.67,4.33,1.53,2.54,1.72,3.39,4.99,4.07,7.99.81,3.68,1.64,7.36,2.46,11.03.54,2.38,1.09,4.82,2.3,6.95.9,1.56,2.11,2.9,3.32,4.24,1.57,1.74,3.14,3.48,4.72,5.22Z"/><g class="s"><path class="p" d="m56.03,129.79c-.05-.61-.08-1.23-.12-1.84-.06-.87.05,1.38.02.5,0-.27-.02-.55-.03-.82-.04-1.3-.05-2.6-.02-3.89.04-2.32.19-4.64.43-6.95.26-2.45.62-4.88,1.09-7.29.1-.54.22-1.07.33-1.61.08-.37.33-1.15-.1.43.07-.26.12-.53.19-.8.29-1.2.6-2.39.94-3.57,1.32-4.6,3.02-9.09,5.08-13.41.27-.55.54-1.11.81-1.66.12-.24.39-1.06.09-.18-.34.99.1-.18.19-.35.58-1.08,1.19-2.15,1.82-3.21,1.19-2,2.46-3.94,3.81-5.83,1.59-2.22,3.28-4.37,5.08-6.42.18-.21.37-.41.54-.61-1.19,1.4-.24.28,0,.02.47-.5.94-.99,1.42-1.48.96-.98,1.94-1.92,2.95-2.85,2.48-2.29,3.14-6.49.7-9.11-2.32-2.48-6.45-3.15-9.11-.7-15.7,14.49-25.8,34.46-28.48,55.64-.77,6.08-.79,12.19-.32,18.29.26,3.38,4.34,5.92,7.51,5.2,3.7-.84,5.48-3.89,5.2-7.51h0Z"/></g><g class="s"><path class="p" d="m89.63,53.67h.55c.89.03,1.72-.15,2.49-.56.8-.26,1.49-.71,2.08-1.34.63-.58,1.07-1.28,1.33-2.08.4-.77.59-1.6.56-2.49-.08-.57-.15-1.14-.23-1.72-.31-1.09-.86-2.04-1.66-2.85-.44-.34-.87-.67-1.31-1.01-1.01-.58-2.09-.88-3.26-.88h-.55c-.89-.03-1.72.15-2.49.56-.8.26-1.49.71-2.08,1.34-.63.58-1.07,1.28-1.34,2.08-.4.77-.59,1.6-.56,2.49.08.57.15,1.14.23,1.72.31,1.09.86,2.04,1.66,2.85.44.34.87.67,1.31,1.01,1.01.58,2.09.88,3.26.88h0Z"/></g><path class="m" d="m340.47,129.81c-8.58,5.36-16.81,11.43-26.36,14.8-1.11.4-2.25.79-3.43.76-1.34-.04-2.6-.65-3.79-1.29-5.96-3.22-11.24-7.68-15.42-13.02-1.15-1.47-2.26-3.05-3.84-4.06-.16,5.88-.74,11.75-1.74,17.55-.51,2.99-1.14,5.95-1.87,8.89-.6,2.39-1.82,4.75-1.06,7.19,2.52,8.04,5.09,24.6,7.27,32.74,1.3,4.84,2.88,9.51.65,9.9-3.07.55-5.09,3.6-7.64,5.41-.53.37-1.1.76-1.75.84-1.91.23-.34-3.3-1.21-5.03-8.55-16.99-12.19-26.85-16.56-42.01-1.26-4.39-1.11-17.55-2.1-54.73l16.45-27.59c5.39.62,9.75.88,14.35,4.11.09.07.19.13.28.2,10.74,7.68,15.67,20.79,21.32,32.12.42.83.93,1.73,1.8,2.04.72.25,1.51.05,2.24-.15,9.46-2.58,19.08-4.57,28.79-5.93.15-.03.3-.05.45-.07.49-.07,1.03-.13,1.44.14.38.24.56.68.68,1.11,1.8,6.22-4.11,13.05-8.95,16.08Z"/><g class="d"><path class="m" d="m348.46,118.85c-.27.33-.73.41-1.15.48-7.26,1.21-14.46,2.84-21.44,5.17-4.47,1.48-8.98,3.27-13.69,3.15-.69-.02-1.41-.08-2.02-.41-1.22-.65-1.71-2.11-2.1-3.44-3.63-12.19-8.93-24.65-19.13-32.26l4.26-6.67c10.74,7.68,15.67,20.79,21.32,32.12.42.83.93,1.73,1.8,2.04.72.25,1.51.05,2.24-.15,9.46-2.58,19.08-4.57,28.79-5.93.48,1.42.9,2.86,1.25,4.31.13.54.23,1.17-.13,1.59Z"/></g><path class="r" d="m315.36,51.29c1.86-1.47,4.01-2.7,6.37-2.94,2.36-.24,4.94.68,6.18,2.71,1.19,1.96.89,4.6-.41,6.49-1.3,1.89-3.45,3.07-5.68,3.58-2.23.52-4.56.43-6.84.2"/><path class="q" d="m250.98,47.12c12.09,3.48,24.63,5.62,37.21,5.95,6.33.17,12.68-.13,18.94-1.04,1.51-.22,3.01-.47,4.5-.77.85-.17,2.97-1.16,3.78-.91,2.68.82,4.06,8.91,3.47,11.24-.98,3.89-9.56,5.14-12.88,6.07-10.79,3.04-22.07,5.15-33.26,5.94"/><path class="q" d="m295.35,85.29c-1.57,5.8-7.95,12.31-11.94,15.17-4.55,3.26-9.58,5.75-14.68,8.07-1.33.61-2.66,1.2-3.99,1.79-.57.25-1.16.5-1.77.63-.51.11-1.02.13-1.53-.02-.77-.24-1.37-.83-1.94-1.41-3.53-3.6-7.05-7.2-10.58-10.8-2.51-2.56-5.03-5.13-7.23-7.97-1.82-2.36-5-7.73-7.5-13.69-3.89-9.29-6.1-20.01,1.18-22.9,5.54-2.2,12.2-3.68,18.11-2.23,5.96,1.46,6.36,5.75,10.17,9.7,2.31,2.39,4.62,3.97,7.04,5.41,2.39,1.42,4.9,2.71,7.65,4.52,4,2.65,16.67,11.25,17,13.52.03.08.03.15,0,.21Z"/><path class="r" d="m245.95,19.21l-34.97,6.83c1.6,6.46,2.71,9.59,4.49,14.4,1.78,4.81,4.88,9.68,9.81,11.09,1.88.54,4.48.43,7.03.07.32,1.71.4,2.32.77,4.24.18.92,6.47-2.04,6.51-2.06,2.09-1.33,4.79-1.26,3.54-3.62-.34-.64-.74-.96-1.14-1.17,2.18-1.09,3.94-2.63,5.15-5.03,1.15-2.26,1.4-4.82,1.62-7.34.47-5.51-.27-10.22-2.81-17.4Z"/><g class="e"><path class="r" d="m239.65,53.74s-.03.02-.05.03c-.04.02-6.33,2.98-6.5,2.06-.37-1.91-.45-2.52-.77-4.24-2.56.36-5.16.47-7.04-.07-4.93-1.41-8.04-6.29-9.81-11.1-1.78-4.81-2.9-7.93-4.49-14.39l5.42-1.06c1.46,5.79,2.55,8.82,4.24,13.38,1.77,4.81,4.88,9.68,9.81,11.09,1.88.54,4.48.44,7.04.08.32,1.71.39,2.32.77,4.24.05.27.61.21,1.39-.01Z"/></g><path class="m" d="m291.78,59.46c-.9.31-1.86.38-2.75.71-2.08.77-3.39,2.77-4.9,4.41-8.33,8.96-17.19-6.59-25.42-7.73-7.91-1.11-15.81,1.91-18.49-7.79-.36-1.3-.75-2.55-1.18-3.8-.35-.99-.68-2.27.05-3.18.35-.43.86-.66,1.31-.98,1.24-.88,1.96-2.46,1.8-3.98-.1-.97-.63-1.98-1.54-2.32-.66-.25-1.4-.12-2.08.06-.38.09-.76.21-1.1.41-.16.09-.32.19-.47.32-.11.09-.22.32-.31.39-.41.24-.42-.37-.48-.68-.06-.35-.23-.72-.39-1.03-.32-.65-.83-1.15-1.59-1.14-.73,0-1.34.53-1.98.89-1.77.99-4.2.66-5.63-.78-1.23-1.24-1.75-3.13-3.16-4.15-2.27-1.66-5.39-.33-8.2-.2-5.99.25-11.29-6.44-8.01-11.96.57-.97,1.3-1.84,2.06-2.67.59-.66,1.2-1.3,1.77-1.98,2.11-2.5,3.93-5.21,6.48-7.32,1.61-1.32,3.24-2.66,5.1-3.59,5.04-2.51,11.6-1.46,15.62,2.47,1.62,1.6,2.93,3.65,5.02,4.58,2.94,1.31,6.61-.01,9.44,1.51,3.91,2.11,3.74,8.08,7.08,11.01,3.53,3.09,9.4,1.52,13.25,4.22,1.84,1.3,2.93,3.39,3.96,5.39,2.58,5.07,4.99,8.52,10.59,10.55,2.6.95,5.52,1.68,7.25,3.86.52.65.88,1.39,1.14,2.18.43,1.33.53,2.8.46,4.22-.16,3.3-1.57,6.99-4.69,8.09Z"/><path class="q" d="m252.66,56.72s-.08-.01-.13-.01l.28-.24c-.05.09-.1.17-.15.25Z"/><g class="h"><path class="m" d="m291.78,59.46c-.9.31-1.86.38-2.75.71-2.08.77-3.39,2.77-4.9,4.41-8.33,8.96-17.19-6.59-25.42-7.73-7.91-1.11-15.81,1.91-18.49-7.79-.36-1.3-.75-2.55-1.18-3.8-.35-.99-.68-2.27.05-3.18.35-.43.86-.66,1.31-.98,1.24-.88,1.96-2.46,1.8-3.98-.1-.97-.63-1.98-1.54-2.32-.66-.25-1.4-.12-2.08.06-.38.09-.76.21-1.1.41-.16.09-.32.19-.47.32-.11.09-.22.32-.31.39-.41.24-.42-.37-.48-.68-.06-.35-.23-.72-.39-1.03-.32-.65-.83-1.15-1.59-1.14-.73,0-1.34.53-1.98.89-1.77.99-4.2.66-5.63-.78-1.23-1.24-1.75-3.13-3.16-4.15-2.27-1.66-5.39-.33-8.2-.2-5.99.25-11.29-6.44-8.01-11.96.57-.97,1.3-1.84,2.06-2.67.53,1.71,1.89,3.25,3.48,4.15,2.48,1.38,5.4,1.62,8.22,1.99,2.81.35,5.76.93,7.9,2.79,1.48,1.28,2.51,3.12,4.29,3.93,1.66.75,3.57.44,5.38.66,2.32.29,4.44,1.48,6.47,2.64,1.74.98,3.57,2.06,4.56,3.8,1.64,2.89.55,6.85,2.5,9.55,2.56,3.55,8.16,2.4,12.08,4.34,3.48,1.72,5.32,5.75,8.73,7.62,2.23,1.22,4.9,1.38,7.41,1.07,6.3-.75,12.02-4.48,15.67-9.65.43,1.33.53,2.8.46,4.22-.16,3.3-1.57,6.99-4.69,8.09Z"/></g><path class="q" d="m198.64,81.3c6.07-4.43,25.63-26.23,34.9-25.6.65.04,10.25.3,10.69.78.42.47.48,1.15.49,1.78.22,8.23-4.91,13.33-10.97,18.14-6.63,5.25-13.39,10.42-20.9,14.3-7.51,3.89-15.86,6.47-24.31,6.21-.89-.03-1.8-.09-2.59-.5-.79-.4-1.43-1.23-1.35-2.11.05-.54.35-1.03.65-1.48,3.37-4.99,8.62-8.03,13.4-11.52Z"/><path class="r" d="m182.84,100.97c1.43.8,3.15,1.16,4.61.96,3.54-.51,6.79-2.79,8.47-5.95-.95-.55-1.64-1.44-2.31-2.31-1.16-1.52-2.33-3.03-3.49-4.55-.21-.28-.48-.59-.83-.59-.19,0-.36.09-.53.18-.89.48-1.8,1.12-2.74,1.47-.67.25-1.37.19-2.04.47-1.56.66-2.78,2-3.52,3.48-.56,1.21-.78,2.64-.31,3.9.46,1.24,1.48,2.25,2.7,2.94Z"/><path class="q" d="m275.59,221.37s.07.01.11.02c1.19.18,2.4-.1,3.53-.49,4.96-1.71,8.89-5.47,12.65-9.12.67-.65,1.35-1.33,1.67-2.2.29-.8.24-1.68.15-2.53-.34-3.52-.61-7.41-2.29-10.59-.09-.17-.21-.36-.39-.41-.31-.09-.58.22-.77.49-1.18,1.75-2.55,3.39-4.21,4.7-1.29,1.02-2.78,1.82-4.37,2.25-.29.08-1,.07-1.22.24-.28.21-.24.62-.36.97-.2.55-4.22,7.14-5.97,9.93-.91,1.45-1.85,3.19-1.22,4.78.43,1.08,1.54,1.78,2.68,1.98Z"/><path class="q" d="m362.38,130.61s.02-.07.02-.11c.24-1.16.04-2.36-.28-3.5-1.39-4.97-4.85-9.03-8.21-12.93-.6-.69-1.22-1.4-2.06-1.76-.77-.33-1.63-.32-2.46-.29-1.41.06-2.83.09-4.24.23-.78.08-4.17.24-4.54.89-.15.26-.09.6.05.86s.37.46.58.68c.77.83,1.25,1.89,1.72,2.93.34.75.68,1.51,1.02,2.26.35.78.71,1.57.99,2.38.23.67.23,1.6.54,2.21.56,1.1,2.23,2.07,3.2,2.77,2.26,1.6,4.73,2.86,6.98,4.46,1.37.97,3.02,2,4.61,1.46,1.08-.37,1.83-1.41,2.09-2.53Z"/><path class="r" d="m73.45,152.55c.42-2.67,2.08-5.1,4.39-6.62,1.26-.83,2.77-1.41,4.29-1.25,2.35.24,4.27,2.3,4.59,4.57.32,2.26-.77,4.57-2.51,6.11-1.74,1.54-4.06,2.37-6.39,2.7"/><path class="r" d="m78.87,179.08c2.27-1.57,5.24-2.12,7.99-1.58,1.5.29,2.99.93,3.94,2.09,1.48,1.79,1.29,4.55-.17,6.34-1.45,1.8-3.93,2.65-6.29,2.52-2.36-.13-4.6-1.15-6.49-2.53"/><path class="m" d="m129.34,296.1c4.74-2.49,9.37-5.17,13.89-8.03.81-.51,1.62-1.04,2.21-1.78.58-.74.89-1.75.57-2.62-.84-2.24-5.81-1.79-7.85-2-3.15-.33-6.3-.66-9.46-.99-.43-.04-.87-.09-1.29.01-.69.17-1.2.7-1.7,1.18-1.73,1.68-3.76,3.08-5.96,4.13-.47.22-1,.49-1.13.98-.09.33.04.68.17,1,1.02,2.49,2.46,4.83,4.23,6.89.75.87,1.54,2.01,2.72,2.23,1.22.22,2.58-.48,3.6-1.02Z"/><path class="m" d="m99.57,306.24c5.41-.04,10.81-.3,16.2-.77.96-.08,1.94-.18,2.82-.57.88-.39,1.64-1.13,1.78-2.05.35-2.35-4.27-4.21-5.96-5.32-2.63-1.72-5.25-3.44-7.88-5.16-.36-.23-.72-.47-1.14-.57-.69-.16-1.4.07-2.08.27-2.35.69-4.83,1.01-7.29.93-.53-.02-1.13-.02-1.48.35-.24.25-.3.62-.34.96-.31,2.66-.18,5.37.38,7.99.24,1.11.38,2.47,1.32,3.2.97.75,2.52.75,3.68.74Z"/><path class="l" d="m111.38,293.36c-2.03,2.68-18.56,5.64-19.24,2.37-1.08-5.18-8.06-29.98-9.73-39.52-10.73,1.72-27.45,3.65-38.19,5.3-7.64,1.17-11.96,2.36-17.97-2.95-8.96-7.92-15.01-25.15-14.11-36.82.12-1.52-3.39-9.35-2.42-10.55,1.78-2.22,5.2-2.26,8.08-1.89,4.08.52,8.1,1.48,11.96,2.86,5.04,1.79,9.45,4.68,14.18,7.09,4.91,2.49,8.38,5.25,13.82,4.99,7.57-.35,15.37.61,22.9,1.23,5.87.48,8.56,1.51,14.58,4.36.03.02,16.97,62.44,16.14,63.54Z"/><path class="n" d="m131.75,279.02c-.6.82-2.05,3.1-2.98,3.57-.46.23-1.13.62-1.92,1.09-2.82,1.66-7.15,4.33-8.96,4.64-2.91.5-20.42-20.9-27.97-27.7-1.5-1.36-3.06-2.75-4.98-3.43-2.49-.89-5.26-.48-7.87-.07-10.73,1.72-21.46,3.5-32.2,5.15-7.64,1.17-17.35,1.19-23.1-4.39-6.23-6.05-10.55-20.38-14.86-36.88-.19-.72-.99-2.95-1.66-5.18-.7-2.37-1.25-4.75-.75-5.37,1.77-2.22,5.19-2.26,8.08-1.9,4.07.53,8.1,1.49,11.96,2.86,5.04,1.79,9.45,4.69,14.18,7.08,4.9,2.49,8.38,5.25,13.82,5,5.31-.24,30.72,1.62,37.49,2.78,1.35.23,2.71.47,3.91,1.09,1.08.55,1.96,1.37,2.82,2.22.13.13.27.28.4.41,12.6,12.93,23.51,27.38,32.38,42.92,1.19,2.08,3.64,4.15,2.22,6.08Z"/><g class="f"><path class="n" d="m131.75,279.02c-.6.82-2.05,3.1-2.98,3.57-.46.23-1.13.62-1.92,1.09-.79-1.59-1.51-3.04-1.68-3.32-8.88-15.54-19.78-29.99-32.38-42.92-.13-.13-.27-.27-.4-.41-.85-.85-1.74-1.67-2.82-2.22-1.21-.62-2.56-.86-3.91-1.09-6.76-1.16-32.17-3.03-37.49-2.78-5.44.26-8.92-2.49-13.82-4.99-4.73-2.41-9.14-5.3-14.18-7.09-3.87-1.37-7.89-2.33-11.96-2.86-.96-.12-1.97-.2-2.96-.17-.7-2.37-1.25-4.75-.75-5.37,1.77-2.22,5.19-2.26,8.08-1.9,4.07.53,8.1,1.49,11.96,2.86,5.04,1.79,9.45,4.69,14.18,7.08,4.9,2.49,8.38,5.25,13.82,5,5.31-.24,30.72,1.62,37.49,2.78,1.35.23,2.71.47,3.91,1.09,1.08.55,1.96,1.37,2.82,2.22.13.13.27.28.4.41,12.6,12.93,23.51,27.38,32.38,42.92,1.19,2.08,3.64,4.15,2.22,6.08Z"/></g><path class="k" d="m23.68,166.9c14.86-2.21,30.61-3.98,43.16-12.55,1.29-.88,2.6-2.12,4.02-2.78,3.2-1.5,6.75,4.34,8.36,6.71,1.15,1.69-1.63,3.61-2.75,4.63-13.59,12.37-31.91,18.45-49.64,24.2"/><g class="g"><path class="k" d="m76.47,162.92c-13.59,12.36-31.91,18.45-49.64,24.2l-.8-5.11c17.05-5.54,34.46-11.63,47.49-23.5.98-.89,3.25-2.48,3-4.01,1.11,1.36,2.06,2.85,2.69,3.79,1.15,1.69-1.63,3.62-2.74,4.64Z"/></g><path class="r" d="m27.46,170.19c-.1.1-.2.18-.33.25-.54.3-1.25.29-1.91.25-.9-.06-1.82-.12-2.73-.17-.71-.05-1.43-.09-2.14-.13-.75-.05-1.59-.15-2.06-.73-.4-.51-.35-1.2-.29-1.84.04-.4.11-.92.18-1.51.19-1.56.47-3.66.68-5.4.12-1.01.23-1.9.3-2.51l2.65.66.17.05.73.18,4.66,1.17c.01.14.02.28.03.42.15,2.45.33,4.89.48,7.33.04.69.06,1.47-.43,1.98Z"/><path class="r" d="m41.06,146.31c-.52,4.97-2.33,10.31-6.78,12.83-1.7.96-4.27,1.49-6.86,1.75-1.54.17-3.09.24-4.47.26-.14,0-.28,0-.42,0-.22,0-.44,0-.67,0-.28,0-.55,0-.81,0-.74,0-1.47-.1-2.17-.23-3.22-.61-6.18-2.4-8.36-4.79-1.7-1.86-2.1-3.08-2.96-5.42-1.18-3.22-1.8-6.26-1.92-9.93-.07-2.12.02-4.46.27-7.17l6.86-.38,27.13-1.47.84-.04,1.07-.06c.01,1.45.02,2.74,0,3.92-.07,4.1-.34,6.89-.74,10.75Z"/><path class="m" d="m38.87,134.87c-.2.12-.4.22-.6.33-4.42,2.31-9.5,3.25-14.56,3.43-.51.01-.93.42-.94.92l-.07,10.07c0,.88-1.16,1.28-1.72.6-1.27-1.54-1.95-3.62-3.9-3.63-.72,0-1.46.05-2.05.45-.8.54-1.06,1.62-.92,2.56.22,1.47,1.32,2.79,2.77,3.32.51.19,1.08.29,1.53.61.58.42,1,.91.98,1.62-.05,1.8-.11,3.6-.16,5.39,0,.04,0,.09-.02.13,0,0,0,.02,0,.02-.02.14-.06.28-.18.35,0,0-.02.02-.02.02-.13.06-.28.01-.42-.03-1.08-.35-2.16-.7-3.24-1.05-.02-.01-.04-.01-.06-.02-3.06-1.01-6.1-3.91-8.35-6.44-1.63-1.84-3.48-4.79-4.72-7.51-.51-1.08-.92-2.12-1.18-3.05-1.7-5.95-1.29-10.68,1.2-16.18,3.19-7.08,11.73-8.92,18.99-9.15,1.98-.07,4.01-.08,5.98.04,1.77.12,3.49.76,5.3.87,2.56.14,5.15-.17,7.57-.94.85-.28,1.67-.6,2.55-.77.75-.15,1.54-.18,2.31-.12.49.05.98.13,1.41.35.16.08.3.17.44.28.67.5,1.08,1.32,1.22,2.13,1.12,6.44-3.6,12.3-9.13,15.4Z"/><g class="e"><path class="r" d="m41.02,146.26c-.52,4.97-2.33,10.31-6.78,12.83-1.7.96-4.27,1.48-6.86,1.75.15,2.45.33,4.89.48,7.33.04.69.06,1.47-.43,1.98-.1.1-.2.18-.33.25-.54.3-1.26.29-1.91.25-.9-.06-1.82-.12-2.73-.17.75-2.27-.57-13.84.75-13.98,10.57-1.13,11.82-4.41,13.33-8.24,1.52-3.84,1.15-10.93.99-16.41l2.33-.15.84-.04,1.07-.06c.01,1.45.02,2.74,0,3.92-.07,4.1-.34,6.89-.74,10.75Z"/></g><path class="i" d="m53.33,223.84c-3.45.96-6.89,1.92-10.33,2.89-.99.28-1.97.55-2.97.83-1.72.48-3.45.96-5.17,1.44-5.52,1.55-24.57,5.62-27.94,3.44-1.36-.88-4.29-24.47-4.17-33.07.15-10.94,1.16-33.25,13.45-34.33,9.15-.8,19.04,3.4,21.51,13,.83,3.24,2.27,7.44,3.95,11.96,5.54,14.84,13.7,33.28,11.66,33.85Z"/><path class="i" d="m26.88,167.38c11.12,4.18,23,9.23,35.05,10.2,2.76.22,5.51.12,8.26-.1,1.47-.12,2.93-.27,4.4-.41.84-.08,1.69-.13,2.54-.22,1.23-.13,2.46-.91,2.79.73.43,2.14.81,4.29,1.14,6.44.11.77.22,1.54.19,2.31-.02.35-.07.71-.27.99-.36.5-2.05.88-2.65,1.11-1.16.45-2.38.76-3.59,1.04-18.21,4.11-37.27.5-55.62-3.11"/><g class="h"><path class="m" d="m38.87,134.87c-.2.12-.4.22-.6.33-4.42,2.31-9.5,3.25-14.56,3.43-.51.01-.93.42-.94.92l-.07,10.07c0,.88-1.16,1.28-1.72.6-1.27-1.54-1.95-3.62-3.9-3.63-.72,0-1.46.05-2.05.45-.8.54-1.06,1.62-.92,2.56.22,1.47,1.32,2.79,2.77,3.32.51.19,1.08.29,1.53.61.58.42,1,.91.98,1.62-.05,1.8-.11,3.6-.16,5.39,0,.04,0,.09-.02.13,0,0,0,.02,0,.02-.05.1-.09.21-.15.3-.01.02-.02.04-.03.05,0,0-.02.02-.02.02-.13.06-.28.01-.42-.03-1.08-.35-2.16-.7-3.24-1.05-.02-.01-.04-.01-.06-.02-3.06-1.01-6.1-3.91-8.35-6.44-1.63-1.84-3.48-4.79-4.72-7.51.77.14,1.53.44,2.28.66,1.65.5,3.51.64,5.06-.1.8-.37,1.46-1.01,1.86-1.77.39-.76.08-1.52.33-2.2.48-1.33,2.64-2.39,3.93-2.79.73-.22,1.54-.39,1.99-.99.64-.87.1-2.06-.02-3.13-.2-1.88,1.04-3.67,2.66-4.72,1.61-1.06,3.55-1.53,5.43-2.03,4.04-1.06,10.05-1.53,13.67-3.53,2.54-1.41,5.3-4.88,7.38-8.07.67.5,1.08,1.32,1.22,2.13,1.12,6.44-3.6,12.3-9.13,15.4Z"/></g><path class="b" d="m53.33,223.84c-3.45.96-6.89,1.92-10.33,2.89-.99.28-1.97.55-2.97.83-6.33-17.31-7.05-40.48-7.05-40.48,0,0,5.65,1.98,8.68,2.92,5.54,14.84,13.7,33.28,11.66,33.85Z"/></g></g></svg>