<svg width="283" height="529" viewBox="0 0 283 529" fill="none" xmlns="http://www.w3.org/2000/svg">
<g opacity="0.3">
<path d="M248.517 412.718C249.558 402.253 241.918 392.926 231.453 391.885C220.987 390.844 211.66 398.484 210.619 408.949C209.578 419.414 217.218 428.742 227.683 429.782C238.148 430.823 247.476 423.183 248.517 412.718Z" fill="#3F6ECC"/>
<path d="M244.074 409.556C244.935 419.273 238.336 427.922 229.018 429.866C229.765 429.887 230.513 429.88 231.274 429.809C241.753 428.876 249.491 419.629 248.558 409.15C247.626 398.672 238.379 390.934 227.9 391.866C227.138 391.93 226.398 392.058 225.672 392.208C235.189 392.478 243.212 399.832 244.074 409.542V409.556Z" fill="#6FFEFA"/>
<path style="mix-blend-mode:screen" d="M204.909 424.313C201.3 424.633 198.866 424.235 198.332 422.875C196.823 419.017 211.807 410.51 227.169 404.516C242.524 398.522 259.31 394.635 260.819 398.494C262.328 402.352 247.344 410.859 231.982 416.853C222.051 420.725 211.515 423.722 204.909 424.313ZM254.291 397.647C248.483 398.166 238.901 400.587 227.39 405.078C209.038 412.24 197.841 419.949 198.894 422.654C199.948 425.359 213.409 423.452 231.761 416.29C250.113 409.129 261.31 401.419 260.257 398.714C259.865 397.704 257.744 397.34 254.291 397.647Z" fill="url(#paint0_linear_79_71)"/>
<path d="M262.216 398.871C262.366 400.565 261.12 402.053 259.426 402.202C257.731 402.352 256.244 401.106 256.094 399.412C255.945 397.717 257.19 396.23 258.885 396.08C260.579 395.931 262.067 397.176 262.216 398.871Z" fill="#6FFEFA"/>
</g>
<path d="M209.941 486.61C209.941 487.62 209.121 488.43 208.121 488.43C207.121 488.43 206.301 487.61 206.301 486.61C206.301 485.61 207.121 484.79 208.121 484.79C209.121 484.79 209.941 485.61 209.941 486.61Z" fill="#FFDA1B"/>
<path d="M125.22 441.55C125.882 441.55 126.42 441.013 126.42 440.35C126.42 439.687 125.882 439.15 125.22 439.15C124.557 439.15 124.02 439.687 124.02 440.35C124.02 441.013 124.557 441.55 125.22 441.55Z" fill="#3F6ECC"/>
<path d="M2.35 469.7C3.09558 469.7 3.7 469.096 3.7 468.35C3.7 467.604 3.09558 467 2.35 467C1.60442 467 1 467.604 1 468.35C1 469.096 1.60442 469.7 2.35 469.7Z" fill="#80B7FF"/>
<path d="M149.341 523.2L153.891 523.66L149.281 524.05L148.881 528.66L148.441 524.11L143.891 523.65L148.501 523.26L148.901 518.66L149.341 523.2Z" fill="#3F6ECC"/>
<path d="M282.298 410.72C282.298 411.38 281.768 411.92 281.098 411.92C280.428 411.92 279.898 411.38 279.898 410.72C279.898 410.06 280.438 409.52 281.098 409.52C281.758 409.52 282.298 410.05 282.298 410.72Z" fill="#3F6ECC"/>
<path d="M138.528 408.4C139.191 408.4 139.728 407.863 139.728 407.2C139.728 406.537 139.191 406 138.528 406C137.865 406 137.328 406.537 137.328 407.2C137.328 407.863 137.865 408.4 138.528 408.4Z" fill="#FFDA1B"/>
<path d="M194.708 432.2L201.078 432.85L194.628 433.39L194.068 439.84L193.438 433.47L187.078 432.83L193.528 432.28L194.088 425.84L194.708 432.2Z" fill="#3F6ECC"/>
<path d="M106.849 482.8C106.849 483.46 106.319 484 105.649 484C104.979 484 104.449 483.46 104.449 482.8C104.449 482.14 104.989 481.6 105.649 481.6C106.309 481.6 106.849 482.13 106.849 482.8Z" fill="#3F6ECC"/>
<path d="M130.77 42.966C130.77 43.572 130.278 44.058 129.678 44.058C129.078 44.058 128.586 43.566 128.586 42.966C128.586 42.366 129.078 41.874 129.678 41.874C130.278 41.874 130.77 42.366 130.77 42.966Z" fill="#FFDA1B"/>
<path d="M116.536 21.3301C116.934 21.3301 117.256 21.0078 117.256 20.6101C117.256 20.2125 116.934 19.8901 116.536 19.8901C116.139 19.8901 115.816 20.2125 115.816 20.6101C115.816 21.0078 116.139 21.3301 116.536 21.3301Z" fill="#3F6ECC"/>
<path d="M42.81 38.2258C43.2573 38.2258 43.62 37.8632 43.62 37.4158C43.62 36.9685 43.2573 36.6058 42.81 36.6058C42.3626 36.6058 42 36.9685 42 37.4158C42 37.8632 42.3626 38.2258 42.81 38.2258Z" fill="#80B7FF"/>
<path d="M131.012 94.3262L133.742 94.6022L130.976 94.8302L130.736 97.5962L130.472 94.8662L127.742 94.5902L130.508 94.3622L130.748 91.5962L131.012 94.3262Z" fill="#3F6ECC"/>
<path d="M210.78 2.83182C210.78 3.22782 210.462 3.55182 210.06 3.55182C209.658 3.55182 209.34 3.22782 209.34 2.83182C209.34 2.43582 209.664 2.11182 210.06 2.11182C210.456 2.11182 210.78 2.42982 210.78 2.83182Z" fill="#3F6ECC"/>
<path d="M124.525 1.44C124.922 1.44 125.245 1.11764 125.245 0.72C125.245 0.322355 124.922 0 124.525 0C124.127 0 123.805 0.322355 123.805 0.72C123.805 1.11764 124.127 1.44 124.525 1.44Z" fill="#FFDA1B"/>
<path d="M101.502 111.708C101.502 112.104 101.178 112.428 100.782 112.428C100.386 112.428 100.062 112.104 100.062 111.708C100.062 111.312 100.386 110.988 100.782 110.988C101.178 110.988 101.502 111.312 101.502 111.708Z" fill="#FFDA1B"/>
<path d="M158.23 15.7258L162.052 16.1098L158.182 16.4338L157.846 20.3038L157.468 16.4818L153.652 16.0978L157.522 15.7738L157.858 11.9038L158.23 15.7258Z" fill="#3F6ECC"/>
<path d="M105.514 46.0857C105.514 46.4817 105.196 46.8057 104.794 46.8057C104.392 46.8057 104.074 46.4817 104.074 46.0857C104.074 45.6897 104.398 45.3657 104.794 45.3657C105.19 45.3657 105.514 45.6837 105.514 46.0857Z" fill="#3F6ECC"/>
<path d="M65.9384 37.77C65.9384 38.748 65.1464 39.54 64.1684 39.54C63.1904 39.54 62.3984 38.748 62.3984 37.77C62.3984 36.792 63.1904 36 64.1684 36C65.1464 36 65.9384 36.792 65.9384 37.77Z" fill="#5A9CD4"/>
<path d="M58.6696 100.434C58.6696 101.556 57.7576 102.468 56.6356 102.468C55.5136 102.468 54.6016 101.556 54.6016 100.434C54.6016 99.3119 55.5136 98.3999 56.6356 98.3999C57.7576 98.3999 58.6696 99.3119 58.6696 100.434Z" fill="#5A9CD4"/>
<path opacity="0.7" d="M2.6996 89.6823L85.6076 55.8303C85.6976 55.7943 85.7936 55.8303 85.8296 55.9143C85.8596 55.9923 85.8236 56.0823 85.7396 56.1243L5.9396 96.7623C3.8756 97.8123 1.3976 97.1163 0.407602 95.2083C-0.582398 93.3003 0.293602 90.8943 2.3576 89.8443C2.4656 89.7903 2.5856 89.7363 2.6996 89.6883V89.6823Z" fill="url(#paint1_linear_79_71)"/>
<defs>
<linearGradient id="paint0_linear_79_71" x1="226.62" y1="404.391" x2="232.523" y2="417.009" gradientUnits="userSpaceOnUse">
<stop/>
<stop offset="0.4" stop-color="#233D53"/>
<stop offset="0.99" stop-color="#5A9CD4"/>
</linearGradient>
<linearGradient id="paint1_linear_79_71" x1="-0.532781" y1="77.3007" x2="82.919" y2="82.3351" gradientUnits="userSpaceOnUse">
<stop stop-color="#3F6ECC"/>
<stop offset="1" stop-color="#4CD6F0" stop-opacity="0"/>
</linearGradient>
</defs>
</svg>
