<?xml version="1.0" encoding="UTF-8"?><svg id="a" xmlns="http://www.w3.org/2000/svg" xmlns:xlink="http://www.w3.org/1999/xlink" viewBox="0 0 284.64 131.72"><defs><style>.aj,.ak,.al,.am,.an,.ao,.ap,.aq,.ar,.as,.at,.au,.av,.aw,.ax,.ay,.az,.ba,.bb,.bc,.bd{stroke-width:0px;}.aj,.ak,.aw,.ax,.ay,.az,.ba,.bb{opacity:.2;}.aj,.ao,.as,.at,.au,.av,.az,.ba,.bb,.bd{fill:#00aec4;}.ak,.bc{fill:#68509f;}.al{filter:url(#ah);}.al,.am,.an,.ap,.aq,.ar,.aw,.ax,.ay{fill:#fff;}.am{filter:url(#ad);}.an{filter:url(#ab);}.ao{filter:url(#af);}.ap{filter:url(#d);}.aq{filter:url(#p);}.ar{filter:url(#x);}.as{filter:url(#z);}.at{filter:url(#v);}.au{filter:url(#f);}.av{filter:url(#h);}.aw{filter:url(#b);}.ax{filter:url(#l);}.ay{filter:url(#r);}.az{filter:url(#t);}.ba{filter:url(#j);}.bb{filter:url(#n);}</style><filter id="b" filterUnits="userSpaceOnUse"><feOffset dx="0" dy="0"/><feGaussianBlur result="c" stdDeviation="4.32"/><feFlood flood-color="#fff" flood-opacity="1"/><feComposite in2="c" operator="in"/><feComposite in="SourceGraphic"/></filter><filter id="d" filterUnits="userSpaceOnUse"><feOffset dx="0" dy="0"/><feGaussianBlur result="e" stdDeviation="4.32"/><feFlood flood-color="#fff" flood-opacity="1"/><feComposite in2="e" operator="in"/><feComposite in="SourceGraphic"/></filter><filter id="f" filterUnits="userSpaceOnUse"><feOffset dx="0" dy="0"/><feGaussianBlur result="g" stdDeviation="4.32"/><feFlood flood-color="#fff" flood-opacity="1"/><feComposite in2="g" operator="in"/><feComposite in="SourceGraphic"/></filter><filter id="h" filterUnits="userSpaceOnUse"><feOffset dx="0" dy="0"/><feGaussianBlur result="i" stdDeviation="4.32"/><feFlood flood-color="#fff" flood-opacity="1"/><feComposite in2="i" operator="in"/><feComposite in="SourceGraphic"/></filter><filter id="j" filterUnits="userSpaceOnUse"><feOffset dx="0" dy="0"/><feGaussianBlur result="k" stdDeviation="4.32"/><feFlood flood-color="#fff" flood-opacity="1"/><feComposite in2="k" operator="in"/><feComposite in="SourceGraphic"/></filter><filter id="l" filterUnits="userSpaceOnUse"><feOffset dx="0" dy="0"/><feGaussianBlur result="m" stdDeviation="3.03"/><feFlood flood-color="#fff" flood-opacity="1"/><feComposite in2="m" operator="in"/><feComposite in="SourceGraphic"/></filter><filter id="n" filterUnits="userSpaceOnUse"><feOffset dx="0" dy="0"/><feGaussianBlur result="o" stdDeviation="3.03"/><feFlood flood-color="#fff" flood-opacity="1"/><feComposite in2="o" operator="in"/><feComposite in="SourceGraphic"/></filter><filter id="p" filterUnits="userSpaceOnUse"><feOffset dx="0" dy="0"/><feGaussianBlur result="q" stdDeviation=".83"/><feFlood flood-color="#fff" flood-opacity="1"/><feComposite in2="q" operator="in"/><feComposite in="SourceGraphic"/></filter><filter id="r" filterUnits="userSpaceOnUse"><feOffset dx="0" dy="0"/><feGaussianBlur result="s" stdDeviation=".99"/><feFlood flood-color="#fff" flood-opacity="1"/><feComposite in2="s" operator="in"/><feComposite in="SourceGraphic"/></filter><filter id="t" filterUnits="userSpaceOnUse"><feOffset dx="0" dy="0"/><feGaussianBlur result="u" stdDeviation=".99"/><feFlood flood-color="#fff" flood-opacity="1"/><feComposite in2="u" operator="in"/><feComposite in="SourceGraphic"/></filter><filter id="v" filterUnits="userSpaceOnUse"><feOffset dx="0" dy="0"/><feGaussianBlur result="w" stdDeviation="4.32"/><feFlood flood-color="#fff" flood-opacity="1"/><feComposite in2="w" operator="in"/><feComposite in="SourceGraphic"/></filter><filter id="x" filterUnits="userSpaceOnUse"><feOffset dx="0" dy="0"/><feGaussianBlur result="y" stdDeviation="3"/><feFlood flood-color="#fff" flood-opacity="1"/><feComposite in2="y" operator="in"/><feComposite in="SourceGraphic"/></filter><filter id="z" filterUnits="userSpaceOnUse"><feOffset dx="0" dy="0"/><feGaussianBlur result="aa" stdDeviation="1.52"/><feFlood flood-color="#fff" flood-opacity="1"/><feComposite in2="aa" operator="in"/><feComposite in="SourceGraphic"/></filter><filter id="ab" filterUnits="userSpaceOnUse"><feOffset dx="0" dy="0"/><feGaussianBlur result="ac" stdDeviation="2.1"/><feFlood flood-color="#fff" flood-opacity="1"/><feComposite in2="ac" operator="in"/><feComposite in="SourceGraphic"/></filter><filter id="ad" filterUnits="userSpaceOnUse"><feOffset dx="0" dy="0"/><feGaussianBlur result="ae" stdDeviation=".83"/><feFlood flood-color="#fff" flood-opacity="1"/><feComposite in2="ae" operator="in"/><feComposite in="SourceGraphic"/></filter><filter id="af" filterUnits="userSpaceOnUse"><feOffset dx="0" dy="0"/><feGaussianBlur result="ag" stdDeviation=".83"/><feFlood flood-color="#fff" flood-opacity="1"/><feComposite in2="ag" operator="in"/><feComposite in="SourceGraphic"/></filter><filter id="ah" filterUnits="userSpaceOnUse"><feOffset dx="0" dy="0"/><feGaussianBlur result="ai" stdDeviation=".82"/><feFlood flood-color="#fff" flood-opacity="1"/><feComposite in2="ai" operator="in"/><feComposite in="SourceGraphic"/></filter></defs><path class="aw" d="m177.74,27.15s2-.05,2-2c-.02.02.09,2.07,1.93,2.07.07.07-1.82-.23-1.82,2.16-.09,0,.11-2.23-2.11-2.23Z"/><path class="ap" d="m13.07,33.81s2-.05,2-2c-.02.02.09,2.07,1.93,2.07.07.07-1.82-.23-1.82,2.16-.09,0,.11-2.23-2.11-2.23Z"/><path class="au" d="m241.06,14.99s2-.05,2-2c-.02.02.09,2.07,1.93,2.07.07.07-1.82-.23-1.82,2.16-.09,0,.11-2.23-2.11-2.23Z"/><path class="av" d="m88.12,38.18s2-.06,1.99-2c-.02.02.1,2.07,1.93,2.06.07.07-1.82-.23-1.81,2.17-.09,0,.1-2.23-2.11-2.22Z"/><path class="ba" d="m267.56,66.99s2-.05,2-2c-.02.02.09,2.07,1.93,2.07.07.07-1.82-.23-1.82,2.16-.09,0,.11-2.23-2.11-2.23Z"/><path class="ax" d="m244.96,70.62s1.4-.04,1.4-1.4c-.01.01.06,1.45,1.35,1.45.05.05-1.28-.16-1.28,1.52-.06,0,.08-1.57-1.48-1.57Z"/><path class="bb" d="m205.42,85.75s1.4-.04,1.4-1.4c-.01.01.06,1.45,1.35,1.45.05.05-1.28-.16-1.28,1.52-.06,0,.08-1.57-1.48-1.57Z"/><path class="aq" d="m14.62,102.16s.38-.01.38-.38c0,0,.02.4.37.4.01.01-.35-.04-.35.41-.02,0,.02-.43-.4-.43Z"/><path class="bc" d="m39.66,97.94c0,.27-.21.48-.48.48s-.48-.21-.48-.48.21-.48.48-.48.48.21.48.48Z"/><path class="bc" d="m128.78,105.62c0,1.38-1.11,2.5-2.49,2.51s-2.5-1.11-2.51-2.49,1.11-2.5,2.49-2.51,2.5,1.11,2.51,2.49Z"/><path class="bc" d="m74.17,73.3c0,1.38-1.11,2.5-2.49,2.51-1.38,0-2.5-1.11-2.51-2.49s1.11-2.5,2.49-2.51c1.38,0,2.5,1.11,2.51,2.49Z"/><path class="ay" d="m162.8,61.15s.46-.01.46-.46c0,0,.02.47.44.47.02.02-.42-.05-.42.49-.02,0,.02-.51-.48-.51Z"/><path class="az" d="m178.82,47.64s.46-.01.46-.46c0,0,.02.47.44.47.02.02-.42-.05-.42.49-.02,0,.02-.51-.48-.51Z"/><path class="ak" d="m188.06,63.09c0,.32-.26.57-.57.57s-.57-.26-.57-.57.26-.57.57-.57.57.26.57.57Z"/><path class="ak" d="m159.87,50.75c0,.32-.26.57-.57.57s-.57-.26-.57-.57.26-.57.57-.57.57.26.57.57Z"/><path class="ak" d="m175.6,55.66c0,.32-.26.57-.57.57s-.57-.26-.57-.57.26-.57.57-.57.57.26.57.57Z"/><path class="at" d="m109.32,62.49s2-.05,2-2c-.02.02.09,2.07,1.93,2.07.07.07-1.82-.23-1.82,2.16-.09,0,.11-2.23-2.11-2.23Z"/><path class="ar" d="m151.68,94.88s1.39-.04,1.39-1.39c-.01.01.06,1.44,1.34,1.44.05.05-1.26-.16-1.26,1.5-.06,0,.07-1.55-1.46-1.55Z"/><path class="as" d="m200.16,13.22s.7-.02.7-.7c0,0,.03.73.68.73.03.03-.64-.08-.64.76-.03,0,.04-.78-.74-.78Z"/><path class="aj" d="m171.59,84.13s1.64.09,1.64-1.41c.04.04.14,1.46,1.61,1.46,0,.03-1.59.09-1.59,1.59-.04,0,.1-1.65-1.65-1.65Z"/><path class="aj" d="m211.86,42.55s2.95.16,2.95-2.53c.08.08.26,2.64,2.9,2.64,0,.05-2.87.16-2.87,2.87-.08,0,.18-2.97-2.97-2.97Z"/><path class="bd" d="m25.5,74.55s1.39.07,1.39-1.2c.04.04.12,1.25,1.37,1.25,0,.02-1.36.07-1.36,1.36-.04,0,.09-1.41-1.41-1.41Z"/><path class="bd" d="m26.07,95.61s.81.04.81-.69c.02.02.07.72.79.72,0,.01-.79.04-.79.79-.02,0,.05-.81-.81-.81Z"/><path class="bd" d="m213.93,11.84s1.47.08,1.47-1.27c.04.04.13,1.32,1.45,1.32,0,.03-1.44.08-1.44,1.44-.04,0,.09-1.49-1.49-1.49Z"/><path class="an" d="m235.13,108.47s.97-.03.97-.97c0,0,.04,1.01.94,1.01.04.03-.89-.11-.89,1.05-.04,0,.05-1.09-1.03-1.09Z"/><path class="am" d="m33.4,110.77s.38-.01.38-.38c0,0,.02.4.37.4.01.01-.35-.04-.35.41-.02,0,.02-.43-.4-.43Z"/><path class="ao" d="m22.58,114.91s.38-.01.38-.38c0,0,.02.4.37.4.01.01-.35-.04-.35.41-.02,0,.02-.43-.4-.43Z"/><path class="al" d="m26.95,125.04s.38-.01.38-.38c0,0,.02.39.36.39.01.01-.34-.04-.34.41-.02,0,.02-.42-.4-.42Z"/><circle class="bc" cx="88.83" cy="129.22" r="2.5"/></svg>