<?xml version="1.0" encoding="UTF-8"?><svg id="a" xmlns="http://www.w3.org/2000/svg" xmlns:xlink="http://www.w3.org/1999/xlink" viewBox="0 0 248.45 180.72"><defs><style>.z{filter:url(#n);}.z,.aa,.ab,.ac,.ad,.ae,.af,.ag,.ah,.ai,.aj,.ak,.al,.am,.an,.ao,.ap,.aq{stroke-width:0px;}.z,.ac,.ae{opacity:.1;}.z,.af,.ag{fill:#fff;}.aa,.ab,.ad{opacity:.4;}.aa,.ac,.ad,.ae,.ah,.ai,.aj,.ak,.al,.am,.an,.aq{fill:#00aec4;}.ab,.ap{fill:#68509f;}.ac{filter:url(#p);}.ad{filter:url(#l);}.af{filter:url(#d);}.ag{filter:url(#f);}.ah{filter:url(#t);}.ai{filter:url(#x);}.aj{filter:url(#v);}.ak{filter:url(#b);}.al{filter:url(#r);}.am{filter:url(#j);}.an{filter:url(#h);}.ao{fill:#f9be37;}</style><filter id="b" filterUnits="userSpaceOnUse"><feOffset dx="0" dy="0"/><feGaussianBlur result="c" stdDeviation="4.32"/><feFlood flood-color="#fff" flood-opacity="1"/><feComposite in2="c" operator="in"/><feComposite in="SourceGraphic"/></filter><filter id="d" filterUnits="userSpaceOnUse"><feOffset dx="0" dy="0"/><feGaussianBlur result="e" stdDeviation="4.32"/><feFlood flood-color="#fff" flood-opacity="1"/><feComposite in2="e" operator="in"/><feComposite in="SourceGraphic"/></filter><filter id="f" filterUnits="userSpaceOnUse"><feOffset dx="0" dy="0"/><feGaussianBlur result="g" stdDeviation="4.32"/><feFlood flood-color="#fff" flood-opacity="1"/><feComposite in2="g" operator="in"/><feComposite in="SourceGraphic"/></filter><filter id="h" filterUnits="userSpaceOnUse"><feOffset dx="0" dy="0"/><feGaussianBlur result="i" stdDeviation="4.32"/><feFlood flood-color="#fff" flood-opacity="1"/><feComposite in2="i" operator="in"/><feComposite in="SourceGraphic"/></filter><filter id="j" filterUnits="userSpaceOnUse"><feOffset dx="0" dy="0"/><feGaussianBlur result="k" stdDeviation="4.32"/><feFlood flood-color="#fff" flood-opacity="1"/><feComposite in2="k" operator="in"/><feComposite in="SourceGraphic"/></filter><filter id="l" filterUnits="userSpaceOnUse"><feOffset dx="0" dy="0"/><feGaussianBlur result="m" stdDeviation="4.32"/><feFlood flood-color="#fff" flood-opacity="1"/><feComposite in2="m" operator="in"/><feComposite in="SourceGraphic"/></filter><filter id="n" filterUnits="userSpaceOnUse"><feOffset dx="0" dy="0"/><feGaussianBlur result="o" stdDeviation="2.5"/><feFlood flood-color="#fff" flood-opacity="1"/><feComposite in2="o" operator="in"/><feComposite in="SourceGraphic"/></filter><filter id="p" filterUnits="userSpaceOnUse"><feOffset dx="0" dy="0"/><feGaussianBlur result="q" stdDeviation="3"/><feFlood flood-color="#fff" flood-opacity="1"/><feComposite in2="q" operator="in"/><feComposite in="SourceGraphic"/></filter><filter id="r" filterUnits="userSpaceOnUse"><feOffset dx="0" dy="0"/><feGaussianBlur result="s" stdDeviation="4.32"/><feFlood flood-color="#fff" flood-opacity="1"/><feComposite in2="s" operator="in"/><feComposite in="SourceGraphic"/></filter><filter id="t" filterUnits="userSpaceOnUse"><feOffset dx="0" dy="0"/><feGaussianBlur result="u" stdDeviation="1.52"/><feFlood flood-color="#fff" flood-opacity="1"/><feComposite in2="u" operator="in"/><feComposite in="SourceGraphic"/></filter><filter id="v" filterUnits="userSpaceOnUse"><feOffset dx="0" dy="0"/><feGaussianBlur result="w" stdDeviation="1.52"/><feFlood flood-color="#fff" flood-opacity="1"/><feComposite in2="w" operator="in"/><feComposite in="SourceGraphic"/></filter><filter id="x" filterUnits="userSpaceOnUse"><feOffset dx="0" dy="0"/><feGaussianBlur result="y" stdDeviation="1.52"/><feFlood flood-color="#fff" flood-opacity="1"/><feComposite in2="y" operator="in"/><feComposite in="SourceGraphic"/></filter></defs><path class="ak" d="m164.83,165.36s2-.05,2-2c-.02.02.09,2.07,1.93,2.07.07.07-1.82-.23-1.82,2.16-.09,0,.11-2.23-2.11-2.23Z"/><path class="af" d="m123.07,72.57s2-.05,2-2c-.02.02.09,2.07,1.93,2.07.07.07-1.82-.23-1.82,2.16-.09,0,.11-2.23-2.11-2.23Z"/><path class="ag" d="m39.81,23.37s2-.05,2-2c-.02.02.09,2.07,1.93,2.07.07.07-1.82-.23-1.82,2.16-.09,0,.11-2.23-2.11-2.23Z"/><path class="an" d="m66.7,94.14s2-.05,2-2c-.02.02.09,2.07,1.93,2.07.07.07-1.82-.23-1.82,2.16-.09,0,.11-2.23-2.11-2.23Z"/><path class="am" d="m48.34,132.43s2-.05,2-2c-.02.02.09,2.07,1.93,2.07.07.07-1.82-.23-1.82,2.16-.09,0,.11-2.23-2.11-2.23Z"/><path class="ad" d="m106.55,14.97s2-.05,2-2c-.02.02.09,2.07,1.93,2.07.07.07-1.82-.23-1.82,2.16-.09,0,.11-2.23-2.11-2.23Z"/><path class="z" d="m203.84,72.21s1.16-.03,1.16-1.16c-.01.01.05,1.2,1.11,1.2.04.04-1.05-.14-1.05,1.25-.05,0,.06-1.29-1.22-1.29Z"/><path class="ac" d="m205.15,22.03s1.39-.04,1.39-1.39c-.01.01.06,1.44,1.34,1.44.05.05-1.26-.16-1.26,1.5-.06,0,.07-1.55-1.46-1.55Z"/><path class="al" d="m140.7,71.14s2-.05,2-2c-.02.02.09,2.07,1.93,2.07.07.07-1.82-.23-1.82,2.16-.09,0,.11-2.23-2.11-2.23Z"/><circle class="ab" cx="119.95" cy="42.55" r="2.5"/><path class="ah" d="m205.42,145.71s.7-.02.7-.7c0,0,.03.73.68.73.03.03-.64-.08-.64.76-.03,0,.04-.78-.74-.78Z"/><path class="aj" d="m39.81,167.55s.7-.02.7-.7c0,0,.03.73.68.73.03.03-.64-.08-.64.76-.03,0,.04-.78-.74-.78Z"/><path class="ai" d="m171.68,113.78s.7-.02.7-.7c0,0,.03.73.68.73.03.03-.64-.08-.64.76-.03,0,.04-.78-.74-.78Z"/><path class="ap" d="m19.41,82.35c0,.48-.39.88-.88.88s-.88-.39-.88-.88.39-.88.88-.88.88.39.88.88Z"/><path class="ae" d="m238.36,52.46s2.43.13,2.43-2.09c.06.06.21,2.18,2.39,2.18,0,.04-2.37.13-2.37,2.37-.06,0,.15-2.45-2.45-2.45Z"/><path class="aa" d="m113.29,113.5s4.2.22,4.2-3.61c.11.11.37,3.76,4.13,3.76,0,.07-4.09.22-4.09,4.09-.11,0,.26-4.24-4.24-4.24Z"/><path class="aq" d="m179.95,67.21s4.2.22,4.2-3.61c.11.11.37,3.76,4.13,3.76,0,.07-4.09.22-4.09,4.09-.11,0,.26-4.24-4.24-4.24Z"/><path class="aq" d="m39.57,91s1.47.08,1.47-1.27c.04.04.13,1.32,1.45,1.32,0,.03-1.44.08-1.44,1.44-.04,0,.09-1.49-1.49-1.49Z"/><path class="ao" d="m7.92,151.8s-.91,10.2-7.92,10.2c0,.13,7.92.25,7.92,9.56.49,0,.43-9.05,7.09-9.05,0-.38-7.33-1.91-7.09-10.71Z"/><path class="ao" d="m241.35,27.86s-.91,10.2-7.92,10.2c0,.13,7.92.25,7.92,9.56.49,0,.43-9.05,7.09-9.05,0-.38-7.33-1.91-7.09-10.71Z"/></svg>