<svg width="404" height="450" viewBox="0 0 404 450" fill="none" xmlns="http://www.w3.org/2000/svg">
<g opacity="0.3">
<path d="M325.2 294.672C328.652 293.256 330.302 289.309 328.886 285.857C327.469 282.405 323.523 280.755 320.071 282.172C316.619 283.588 314.969 287.535 316.385 290.987C317.801 294.439 321.748 296.089 325.2 294.672Z" fill="#3F6ECC"/>
<path d="M317.471 288.412C317.471 284.95 320.075 282.106 323.429 281.71C323.165 281.68 322.901 281.656 322.631 281.656C318.899 281.656 315.875 284.68 315.875 288.412C315.875 292.144 318.899 295.168 322.631 295.168C322.901 295.168 323.165 295.15 323.429 295.114C320.075 294.718 317.471 291.868 317.471 288.412Z" fill="#6FFEFA"/>
</g>
<path d="M369.024 312.442C369.024 313.048 368.532 313.534 367.932 313.534C367.332 313.534 366.84 313.042 366.84 312.442C366.84 311.842 367.332 311.35 367.932 311.35C368.532 311.35 369.024 311.842 369.024 312.442Z" fill="#FFDA1B"/>
<path d="M306.193 279.406C306.59 279.406 306.913 279.083 306.913 278.686C306.913 278.288 306.59 277.966 306.193 277.966C305.795 277.966 305.473 278.288 305.473 278.686C305.473 279.083 305.795 279.406 306.193 279.406Z" fill="#3F6ECC"/>
<path d="M232.47 296.296C232.918 296.296 233.28 295.933 233.28 295.486C233.28 295.039 232.918 294.676 232.47 294.676C232.023 294.676 231.66 295.039 231.66 295.486C231.66 295.933 232.023 296.296 232.47 296.296Z" fill="#80B7FF"/>
<path d="M320.665 328.396L323.395 328.672L320.629 328.906L320.389 331.672L320.125 328.942L317.395 328.666L320.161 328.432L320.401 325.672L320.665 328.396Z" fill="#3F6ECC"/>
<path d="M400.44 260.908C400.44 261.304 400.122 261.628 399.72 261.628C399.318 261.628 399 261.304 399 260.908C399 260.512 399.324 260.188 399.72 260.188C400.116 260.188 400.44 260.506 400.44 260.908Z" fill="#3F6ECC"/>
<path d="M314.177 259.516C314.575 259.516 314.897 259.194 314.897 258.796C314.897 258.399 314.575 258.076 314.177 258.076C313.779 258.076 313.457 258.399 313.457 258.796C313.457 259.194 313.779 259.516 314.177 259.516Z" fill="#FFDA1B"/>
<path d="M291.163 345.783C291.163 346.179 290.839 346.503 290.443 346.503C290.047 346.503 289.723 346.179 289.723 345.783C289.723 345.387 290.047 345.063 290.443 345.063C290.839 345.063 291.163 345.387 291.163 345.783Z" fill="#FFDA1B"/>
<path d="M347.887 273.795L351.709 274.185L347.839 274.509L347.503 278.379L347.125 274.557L343.309 274.173L347.179 273.843L347.515 269.979L347.887 273.795Z" fill="#3F6ECC"/>
<path d="M295.17 304.157C295.17 304.553 294.852 304.877 294.45 304.877C294.048 304.877 293.73 304.553 293.73 304.157C293.73 303.761 294.054 303.437 294.45 303.437C294.846 303.437 295.17 303.755 295.17 304.157Z" fill="#3F6ECC"/>
<path d="M32.1441 379.842C32.1441 380.448 32.6361 380.934 33.2361 380.934C33.8361 380.934 34.3281 380.442 34.3281 379.842C34.3281 379.242 33.8361 378.75 33.2361 378.75C32.6361 378.75 32.1441 379.242 32.1441 379.842Z" fill="#FFDA1B"/>
<path d="M46.3737 358.206C45.9761 358.206 45.6537 357.883 45.6537 357.486C45.6537 357.088 45.9761 356.766 46.3737 356.766C46.7714 356.766 47.0938 357.088 47.0938 357.486C47.0938 357.883 46.7714 358.206 46.3737 358.206Z" fill="#3F6ECC"/>
<path d="M120.096 375.096C119.649 375.096 119.286 374.733 119.286 374.286C119.286 373.838 119.649 373.476 120.096 373.476C120.544 373.476 120.906 373.838 120.906 374.286C120.906 374.733 120.544 375.096 120.096 375.096Z" fill="#80B7FF"/>
<path d="M31.9019 431.196L29.1719 431.472L31.9379 431.706L32.1779 434.472L32.4419 431.742L35.1719 431.466L32.4059 431.232L32.1659 428.472L31.9019 431.196Z" fill="#3F6ECC"/>
<path d="M38.3894 338.316C37.9917 338.316 37.6694 337.994 37.6694 337.596C37.6694 337.198 37.9917 336.876 38.3894 336.876C38.787 336.876 39.1094 337.198 39.1094 337.596C39.1094 337.994 38.787 338.316 38.3894 338.316Z" fill="#FFDA1B"/>
<path d="M61.4037 448.584C61.4037 448.98 61.7277 449.304 62.1237 449.304C62.5197 449.304 62.8438 448.98 62.8438 448.584C62.8438 448.188 62.5197 447.864 62.1237 447.864C61.7277 447.864 61.4037 448.188 61.4037 448.584Z" fill="#FFDA1B"/>
<path d="M4.67981 352.596L0.857811 352.986L4.72782 353.31L5.06382 357.18L5.44182 353.358L9.25781 352.974L5.3878 352.644L5.05181 348.78L4.67981 352.596Z" fill="#3F6ECC"/>
<path d="M57.3959 382.956C57.3959 383.352 57.7139 383.676 58.1159 383.676C58.5179 383.676 58.8359 383.352 58.8359 382.956C58.8359 382.56 58.5119 382.236 58.1159 382.236C57.7199 382.236 57.3959 382.554 57.3959 382.956Z" fill="#3F6ECC"/>
<path d="M149.455 232.65C149.455 233.561 148.717 234.299 147.806 234.299C146.894 234.299 146.156 233.561 146.156 232.65C146.156 231.738 146.894 231 147.806 231C148.717 231 149.455 231.738 149.455 232.65Z" fill="#5A9CD4"/>
<path d="M142.678 291.05C142.678 292.096 141.828 292.946 140.782 292.946C139.737 292.946 138.887 292.096 138.887 291.05C138.887 290.004 139.737 289.154 140.782 289.154C141.828 289.154 142.678 290.004 142.678 291.05Z" fill="#5A9CD4"/>
<path opacity="0.7" d="M90.5159 281.031L167.783 249.482C167.867 249.448 167.957 249.482 167.99 249.56C168.018 249.633 167.985 249.717 167.906 249.756L93.5355 287.629C91.6119 288.607 89.3025 287.959 88.3799 286.181C87.4572 284.402 88.2736 282.16 90.1972 281.182C90.2979 281.131 90.4097 281.081 90.5159 281.036V281.031Z" fill="url(#paint0_linear_81_101)"/>
<g opacity="0.8">
<path d="M390.324 6.26269C390.831 7.2706 390.382 8.5232 389.31 9.06503L378.684 14.4425L378.311 14.6348C377.722 14.9319 377.472 15.6252 377.751 16.1787C378.031 16.7321 378.736 16.9419 379.325 16.6447L400.485 5.93643L401.231 5.55773C402.134 5.09747 403.217 5.41791 403.648 6.26851L403.823 6.61808C404.254 7.46868 403.87 8.52903 402.967 8.98929L402.926 9.01259L402.221 9.36798L374.402 23.4496C373.33 23.9914 372.881 25.244 373.388 26.2519C373.895 27.2598 375.176 27.6385 376.248 27.0967L377.454 26.485L380.012 25.1916C381.667 24.3526 383.642 24.9411 384.434 26.4966C385.221 28.0522 384.521 29.9923 382.867 30.8312L378.357 33.115L199.462 123.67C194.073 126.396 187.623 124.497 185.054 119.422C182.485 114.348 184.775 108.027 190.158 105.3L376.843 10.8012L387.464 5.41791C388.536 4.87608 389.811 5.25478 390.324 6.26269Z" fill="#2B3B78"/>
<path opacity="0.1" d="M284.341 59.9147C284.848 60.9226 284.277 62.2393 283.065 62.851L271 68.9567L270.574 69.1723C269.904 69.5102 269.59 70.2326 269.869 70.7919C270.149 71.3454 270.918 71.5202 271.588 71.1823L295.609 59.0233L296.46 58.5921C297.485 58.0736 298.668 58.3416 299.099 59.1922L299.274 59.5418C299.705 60.3924 299.221 61.5052 298.196 62.0237L298.149 62.047L297.345 62.4548L265.756 78.4474C264.544 79.065 263.973 80.3758 264.48 81.3837C264.987 82.3916 266.385 82.7062 267.603 82.0945L268.972 81.4012L271.879 79.9272C273.755 78.9776 275.917 79.467 276.703 81.0225C277.49 82.5781 276.61 84.6114 274.734 85.561L269.619 88.1536L200.784 122.999C194.666 126.099 187.623 124.497 185.053 119.422C182.484 114.348 185.362 107.723 191.48 104.63L269.153 65.3096L281.219 59.2039C282.43 58.5863 283.829 58.9067 284.341 59.9147Z" fill="#3F6ECC"/>
<path d="M200.79 116.005C201.882 113.016 200.344 109.708 197.355 108.616C194.366 107.523 191.058 109.061 189.966 112.05C188.874 115.039 190.411 118.348 193.4 119.44C196.389 120.532 199.698 118.994 200.79 116.005Z" fill="#3F6ECC"/>
</g>
<path d="M305.945 41.7205C305.945 42.3089 305.467 42.7808 304.885 42.7808C304.302 42.7808 303.824 42.3031 303.824 41.7205C303.824 41.1379 304.302 40.6602 304.885 40.6602C305.467 40.6602 305.945 41.1379 305.945 41.7205Z" fill="#FFDA1B"/>
<path d="M292.129 20.7117C292.515 20.7117 292.828 20.3987 292.828 20.0126C292.828 19.6265 292.515 19.3135 292.129 19.3135C291.743 19.3135 291.43 19.6265 291.43 20.0126C291.43 20.3987 291.743 20.7117 292.129 20.7117Z" fill="#3F6ECC"/>
<path d="M220.537 37.1175C220.971 37.1175 221.323 36.7654 221.323 36.331C221.323 35.8966 220.971 35.5445 220.537 35.5445C220.102 35.5445 219.75 35.8966 219.75 36.331C219.75 36.7654 220.102 37.1175 220.537 37.1175Z" fill="#80B7FF"/>
<path d="M306.179 91.5913L308.83 91.8593L306.144 92.0807L305.911 94.7665L305.655 92.1156L303.004 91.8476L305.69 91.6262L305.923 88.9404L306.179 91.5913Z" fill="#3F6ECC"/>
<path d="M383.637 2.74991C383.637 3.13443 383.328 3.44904 382.937 3.44904C382.547 3.44904 382.238 3.13443 382.238 2.74991C382.238 2.36539 382.553 2.05078 382.937 2.05078C383.322 2.05078 383.637 2.35956 383.637 2.74991Z" fill="#3F6ECC"/>
<path d="M299.883 1.39826C300.269 1.39826 300.582 1.08525 300.582 0.699129C300.582 0.313011 300.269 0 299.883 0C299.497 0 299.184 0.313011 299.184 0.699129C299.184 1.08525 299.497 1.39826 299.883 1.39826Z" fill="#FFDA1B"/>
<path d="M277.527 108.47C277.527 108.855 277.213 109.169 276.828 109.169C276.444 109.169 276.129 108.855 276.129 108.47C276.129 108.086 276.444 107.771 276.828 107.771C277.213 107.771 277.527 108.086 277.527 108.47Z" fill="#FFDA1B"/>
<path d="M332.613 15.2703L336.324 15.6432L332.567 15.9578L332.24 19.7156L331.873 16.0044L328.168 15.6315L331.926 15.3169L332.252 11.5591L332.613 15.2703Z" fill="#3F6ECC"/>
<path d="M281.426 44.7499C281.426 45.1344 281.117 45.449 280.726 45.449C280.336 45.449 280.027 45.1344 280.027 44.7499C280.027 44.3654 280.342 44.0508 280.726 44.0508C281.111 44.0508 281.426 44.3596 281.426 44.7499Z" fill="#3F6ECC"/>
<defs>
<linearGradient id="paint0_linear_81_101" x1="87.5035" y1="269.491" x2="165.278" y2="274.183" gradientUnits="userSpaceOnUse">
<stop stop-color="#3F6ECC"/>
<stop offset="1" stop-color="#4CD6F0" stop-opacity="0"/>
</linearGradient>
</defs>
</svg>
