<svg width="468" height="645" viewBox="0 0 468 645" fill="none" xmlns="http://www.w3.org/2000/svg">
<g opacity="0.3">
<path d="M359.173 592.087C363.775 590.198 365.976 584.936 364.087 580.334C362.198 575.731 356.936 573.531 352.334 575.42C347.731 577.308 345.531 582.57 347.42 587.173C349.308 591.775 354.57 593.976 359.173 592.087Z" fill="#3F6ECC"/>
<path d="M348.886 583.708C348.886 579.092 352.358 575.3 356.83 574.772C356.478 574.732 356.126 574.7 355.766 574.7C350.79 574.7 346.758 578.732 346.758 583.708C346.758 588.684 350.79 592.716 355.766 592.716C356.126 592.716 356.478 592.692 356.83 592.644C352.358 592.116 348.886 588.316 348.886 583.708Z" fill="#6FFEFA"/>
</g>
<path d="M400.612 496.014C400.612 496.522 400.199 496.93 399.697 496.93C399.194 496.93 398.781 496.517 398.781 496.014C398.781 495.512 399.194 495.099 399.697 495.099C400.199 495.099 400.612 495.512 400.612 496.014Z" fill="#FFDA1B"/>
<path d="M388.682 477.879C389.015 477.879 389.285 477.609 389.285 477.275C389.285 476.942 389.015 476.672 388.682 476.672C388.348 476.672 388.078 476.942 388.078 477.275C388.078 477.609 388.348 477.879 388.682 477.879Z" fill="#3F6ECC"/>
<path d="M326.882 492.041C327.257 492.041 327.561 491.737 327.561 491.362C327.561 490.987 327.257 490.683 326.882 490.683C326.507 490.683 326.203 490.987 326.203 491.362C326.203 491.737 326.507 492.041 326.882 492.041Z" fill="#80B7FF"/>
<path d="M400.811 539.065L403.1 539.296L400.781 539.487L400.58 541.806L400.359 539.517L398.07 539.286L400.389 539.095L400.59 536.776L400.811 539.065Z" fill="#3F6ECC"/>
<path d="M467.676 462.374C467.676 462.706 467.409 462.978 467.072 462.978C466.735 462.978 466.469 462.706 466.469 462.374C466.469 462.042 466.74 461.771 467.072 461.771C467.404 461.771 467.676 462.037 467.676 462.374Z" fill="#3F6ECC"/>
<path d="M395.377 461.207C395.71 461.207 395.98 460.937 395.98 460.604C395.98 460.27 395.71 460 395.377 460C395.044 460 394.773 460.27 394.773 460.604C394.773 460.937 395.044 461.207 395.377 461.207Z" fill="#FFDA1B"/>
<path d="M376.078 553.635C376.078 553.967 375.807 554.238 375.475 554.238C375.143 554.238 374.871 553.967 374.871 553.635C374.871 553.303 375.143 553.031 375.475 553.031C375.807 553.031 376.078 553.303 376.078 553.635Z" fill="#FFDA1B"/>
<path d="M423.63 473.182L426.834 473.504L423.59 473.775L423.308 477.019L422.992 473.815L419.793 473.493L423.037 473.222L423.318 469.978L423.63 473.182Z" fill="#3F6ECC"/>
<path d="M379.441 498.629C379.441 498.961 379.175 499.233 378.838 499.233C378.501 499.233 378.234 498.961 378.234 498.629C378.234 498.297 378.506 498.026 378.838 498.026C379.17 498.026 379.441 498.292 379.441 498.629Z" fill="#3F6ECC"/>
<path d="M346.272 491.659C346.272 492.479 345.608 493.142 344.788 493.142C343.969 493.142 343.305 492.479 343.305 491.659C343.305 490.839 343.969 490.175 344.788 490.175C345.608 490.175 346.272 490.839 346.272 491.659Z" fill="#5A9CD4"/>
<path d="M340.175 544.184C340.175 545.124 339.411 545.889 338.471 545.889C337.53 545.889 336.766 545.124 336.766 544.184C336.766 543.243 337.53 542.479 338.471 542.479C339.411 542.479 340.175 543.243 340.175 544.184Z" fill="#5A9CD4"/>
<path opacity="0.7" d="M293.263 535.172L362.757 506.797C362.832 506.767 362.913 506.797 362.943 506.867C362.968 506.932 362.938 507.008 362.867 507.043L295.979 541.106C294.249 541.986 292.171 541.403 291.342 539.804C290.512 538.204 291.246 536.188 292.976 535.307C293.067 535.262 293.167 535.217 293.263 535.177V535.172Z" fill="url(#paint0_linear_80_59)"/>
<g opacity="0.7">
<path d="M160.537 558.418C195.628 548.534 216.051 512.032 206.153 476.887C196.254 441.742 159.783 421.264 124.691 431.148C89.5996 441.031 69.1767 477.534 79.0753 512.679C88.9739 547.823 125.446 568.301 160.537 558.418Z" fill="#2B3B78"/>
<mask id="mask0_80_59" style="mask-type:luminance" maskUnits="userSpaceOnUse" x="76" y="428" width="133" height="133">
<path d="M160.507 558.41C195.604 548.545 216.046 512.053 206.165 476.903C196.285 441.753 159.824 421.256 124.728 431.121C89.6311 440.986 69.1892 477.478 79.0693 512.628C88.9495 547.778 125.41 568.275 160.507 558.41Z" fill="white"/>
</mask>
<g mask="url(#mask0_80_59)">
<path opacity="0.1" d="M163.332 464.581L133.691 476.922C130.653 478.188 127.173 476.745 125.907 473.707C124.641 470.669 126.078 467.177 129.116 465.917L146.527 458.669C149.566 457.403 150.996 453.917 149.736 450.879C148.47 447.841 144.985 446.398 141.952 447.664L55.4511 483.675C52.4129 484.941 50.9821 488.427 52.2421 491.465C53.5081 494.504 56.9938 495.946 60.0261 494.68L60.715 494.392C63.7533 493.126 67.2331 494.568 68.499 497.607C69.7649 500.645 68.3283 504.136 65.29 505.396L-72.3841 562.711L-67.8032 573.721L-162.789 613.265L-158.208 624.276L-115.125 606.341L-110.544 617.352L83.7196 533.4C86.7578 532.134 88.1886 528.648 86.9286 525.61C85.6626 522.572 82.1769 521.129 79.1446 522.395L77.6726 526.087C74.6344 527.353 71.1545 525.91 69.8886 522.872C68.6227 519.834 70.0593 516.342 73.0976 515.082L167.924 475.603C170.963 474.337 172.393 470.851 171.133 467.813C169.868 464.775 166.382 463.332 163.349 464.598L163.332 464.581Z" fill="#3F6ECC"/>
<path opacity="0.1" d="M189.704 544.54L171.086 552.289C168.16 553.507 164.68 552.359 163.278 549.509C161.736 546.389 163.167 542.668 166.323 541.355L175.42 537.569C178.346 536.35 179.983 533.076 178.952 530.067C177.828 526.776 174.183 525.162 171.027 526.481L92.8398 559.03C89.9134 560.249 88.2765 563.523 89.3069 566.532C90.4316 569.823 94.0763 571.431 97.2322 570.118L116.033 562.287C118.959 561.068 122.439 562.216 123.84 565.066C125.383 568.186 123.952 571.908 120.796 573.221L-35.178 638.154L-30.5971 649.165L-120.083 686.418C-123.122 687.684 -124.553 691.17 -123.292 694.208C-122.027 697.246 -118.541 698.689 -115.508 697.423L-77.9251 681.772L-73.3442 692.783L151.349 599.24C154.276 598.021 155.912 594.747 154.882 591.738C153.757 588.447 150.113 586.84 146.957 588.153L114.867 601.513C111.829 602.779 108.349 601.336 107.083 598.298C105.817 595.26 107.254 591.768 110.292 590.508L194.09 555.621C197.017 554.402 198.654 551.129 197.623 548.12C196.499 544.828 192.854 543.215 189.698 544.534L189.704 544.54Z" fill="#3F6ECC"/>
<path opacity="0.1" d="M183.544 468.985C186.665 468.107 188.483 464.863 187.604 461.739C186.725 458.615 183.483 456.794 180.362 457.672C177.241 458.55 175.423 461.794 176.302 464.918C177.181 468.042 180.423 469.863 183.544 468.985Z" fill="#3F6ECC"/>
</g>
<g opacity="0.1">
<path d="M197.096 456.384C198.615 458.946 199.987 461.625 201.171 464.445C217.828 459.994 228.656 458.598 229.722 461.319C230.817 464.109 221.426 470.681 205.457 479C190.125 486.99 168.734 496.582 144.681 505.991C122.954 514.488 102.717 521.4 86.7074 526.005C66.5291 531.804 53.069 533.924 51.8737 530.88C50.7079 527.901 61.4889 520.611 79.471 511.485C78.4641 508.647 77.6634 505.785 77.0628 502.912C38.2783 521.488 13.313 538.081 15.9979 544.917C18.7418 551.918 49.7717 546.766 92.4777 533.37C109.412 528.059 128.177 521.459 147.743 513.805C169.24 505.396 189.159 496.717 206.288 488.451C244.077 470.215 268.247 454.012 265.604 447.281C263.031 440.722 235.639 444.838 197.096 456.384Z" fill="#3F6ECC"/>
</g>
</g>
<path d="M171.536 584.285C171.536 584.926 171.016 585.44 170.381 585.44C169.747 585.44 169.227 584.92 169.227 584.285C169.227 583.651 169.747 583.13 170.381 583.13C171.016 583.13 171.536 583.651 171.536 584.285Z" fill="#FFDA1B"/>
<path d="M78.816 573.855C79.2365 573.855 79.5774 573.514 79.5774 573.093C79.5774 572.673 79.2365 572.332 78.816 572.332C78.3956 572.332 78.0547 572.673 78.0547 573.093C78.0547 573.514 78.3956 573.855 78.816 573.855Z" fill="#3F6ECC"/>
<path d="M0.856501 591.721C1.32953 591.721 1.713 591.337 1.713 590.864C1.713 590.391 1.32953 590.008 0.856501 590.008C0.383471 590.008 0 590.391 0 590.864C0 591.337 0.383471 591.721 0.856501 591.721Z" fill="#80B7FF"/>
<path d="M132.188 625.663L135.075 625.955L132.15 626.196L131.896 629.121L131.611 626.234L128.73 625.942L131.649 625.695L131.903 622.776L132.188 625.663Z" fill="#3F6ECC"/>
<path d="M216.534 554.295C216.534 554.714 216.198 555.056 215.773 555.056C215.348 555.056 215.012 554.714 215.012 554.295C215.012 553.876 215.354 553.534 215.773 553.534C216.192 553.534 216.534 553.87 216.534 554.295Z" fill="#3F6ECC"/>
<path d="M87.2613 552.823C87.6818 552.823 88.0227 552.483 88.0227 552.062C88.0227 551.642 87.6818 551.301 87.2613 551.301C86.8409 551.301 86.5 551.642 86.5 552.062C86.5 552.483 86.8409 552.823 87.2613 552.823Z" fill="#FFDA1B"/>
<path d="M100.984 644.043C100.984 644.462 100.641 644.804 100.222 644.804C99.8035 644.804 99.4609 644.462 99.4609 644.043C99.4609 643.624 99.8035 643.282 100.222 643.282C100.641 643.282 100.984 643.624 100.984 644.043Z" fill="#FFDA1B"/>
<path d="M122.906 567.929L126.941 568.335L122.849 568.678L122.493 572.77L122.1 568.728L118.059 568.322L122.151 567.98L122.512 563.888L122.906 567.929Z" fill="#3F6ECC"/>
<path d="M105.23 600.032C105.23 600.451 104.893 600.793 104.468 600.793C104.043 600.793 103.707 600.451 103.707 600.032C103.707 599.613 104.05 599.271 104.468 599.271C104.887 599.271 105.23 599.607 105.23 600.032Z" fill="#3F6ECC"/>
<path d="M140.743 401.432C140.743 402.073 140.223 402.587 139.588 402.587C138.954 402.587 138.434 402.066 138.434 401.432C138.434 400.798 138.954 400.277 139.588 400.277C140.223 400.277 140.743 400.798 140.743 401.432Z" fill="#FFDA1B"/>
<path d="M125.695 378.554C126.115 378.554 126.456 378.214 126.456 377.793C126.456 377.373 126.115 377.032 125.695 377.032C125.274 377.032 124.934 377.373 124.934 377.793C124.934 378.214 125.274 378.554 125.695 378.554Z" fill="#3F6ECC"/>
<path d="M47.7432 396.414C48.2162 396.414 48.5997 396.031 48.5997 395.558C48.5997 395.085 48.2162 394.701 47.7432 394.701C47.2702 394.701 46.8867 395.085 46.8867 395.558C46.8867 396.031 47.2702 396.414 47.7432 396.414Z" fill="#80B7FF"/>
<path d="M141.001 455.735L143.887 456.027L140.963 456.274L140.709 459.199L140.43 456.312L137.543 456.02L140.468 455.773L140.722 452.854L141.001 455.735Z" fill="#3F6ECC"/>
<path d="M134.14 357.523C134.561 357.523 134.902 357.182 134.902 356.761C134.902 356.341 134.561 356 134.14 356C133.72 356 133.379 356.341 133.379 356.761C133.379 357.182 133.72 357.523 134.14 357.523Z" fill="#FFDA1B"/>
<path d="M109.804 474.121C109.804 474.539 109.461 474.882 109.043 474.882C108.624 474.882 108.281 474.539 108.281 474.121C108.281 473.702 108.624 473.359 109.043 473.359C109.461 473.359 109.804 473.702 109.804 474.121Z" fill="#FFDA1B"/>
<path d="M114.042 404.725C114.042 405.144 113.706 405.487 113.281 405.487C112.856 405.487 112.52 405.144 112.52 404.725C112.52 404.306 112.862 403.964 113.281 403.964C113.7 403.964 114.042 404.3 114.042 404.725Z" fill="#3F6ECC"/>
<path d="M376.2 2.4C376.863 2.4 377.4 1.86274 377.4 1.2C377.4 0.537255 376.863 0 376.2 0C375.537 0 375 0.537255 375 1.2C375 1.86274 375.537 2.4 376.2 2.4Z" fill="#3F6ECC"/>
<path d="M270.35 32.6995C271.096 32.6995 271.7 32.0951 271.7 31.3495C271.7 30.6039 271.096 29.9995 270.35 29.9995C269.604 29.9995 269 30.6039 269 31.3495C269 32.0951 269.604 32.6995 270.35 32.6995Z" fill="#80B7FF"/>
<path d="M415.2 30.4C415.863 30.4 416.4 29.8627 416.4 29.2C416.4 28.5373 415.863 28 415.2 28C414.537 28 414 28.5373 414 29.2C414 29.8627 414.537 30.4 415.2 30.4Z" fill="#FFDA1B"/>
<path d="M385.63 26.36L392 27.01L385.55 27.55L384.99 34L384.36 27.63L378 26.99L384.45 26.44L385.01 20L385.63 26.36Z" fill="#3F6ECC"/>
<path d="M347.4 49.2C347.4 49.86 346.87 50.4 346.2 50.4C345.53 50.4 345 49.86 345 49.2C345 48.54 345.54 48 346.2 48C346.86 48 347.4 48.53 347.4 49.2Z" fill="#3F6ECC"/>
<path d="M107.45 47.54L112 48L107.39 48.39L106.99 53L106.55 48.45L102 47.99L106.61 47.6L107.01 43L107.45 47.54Z" fill="#3F6ECC"/>
<path d="M87.4 38.2C87.4 38.86 86.87 39.4 86.2 39.4C85.53 39.4 85 38.86 85 38.2C85 37.54 85.54 37 86.2 37C86.86 37 87.4 37.53 87.4 38.2Z" fill="#3F6ECC"/>
<defs>
<linearGradient id="paint0_linear_80_59" x1="290.553" y1="524.793" x2="360.503" y2="529.013" gradientUnits="userSpaceOnUse">
<stop stop-color="#3F6ECC"/>
<stop offset="1" stop-color="#4CD6F0" stop-opacity="0"/>
</linearGradient>
</defs>
</svg>
