<svg width="1388" height="988" viewBox="0 0 1388 988" fill="none" xmlns="http://www.w3.org/2000/svg">
<path opacity="0.1" d="M1293.74 275.23C1306.32 309.777 1301.75 348.849 1282.48 390.041C1263.2 431.241 1229.26 474.454 1183.28 517.135C1091.34 602.494 951.513 685.524 785.581 745.918C619.65 806.312 459.165 832.587 333.866 826.298C271.213 823.153 217.433 811.869 176.184 792.699C134.942 773.533 106.329 746.536 93.755 711.99C81.1811 677.444 85.7474 638.371 105.02 597.179C124.297 555.979 158.241 512.767 204.215 470.085C296.157 384.726 435.985 301.697 601.916 241.303C767.848 180.909 928.332 154.633 1053.63 160.923C1116.28 164.068 1170.06 175.351 1211.31 194.521C1252.56 213.688 1281.17 240.684 1293.74 275.23Z" stroke="#579EF2" stroke-width="3" stroke-linecap="round"/>
<path opacity="0.7" d="M694 986C965.724 986 1186 765.724 1186 494C1186 222.276 965.724 2 694 2C422.276 2 202 222.276 202 494C202 765.724 422.276 986 694 986Z" stroke="#364278" stroke-width="3" stroke-linecap="round" stroke-linejoin="round" stroke-dasharray="4 10"/>
<path opacity="0.7" d="M694 868C900.554 868 1068 700.778 1068 494.5C1068 288.222 900.554 121 694 121C487.445 121 320 288.222 320 494.5C320 700.778 487.445 868 694 868Z" stroke="#364278" stroke-width="3" stroke-miterlimit="10"/>
<path opacity="0.7" d="M694 754C837.594 754 954 637.594 954 494C954 350.406 837.594 234 694 234C550.406 234 434 350.406 434 494C434 637.594 550.406 754 694 754Z" stroke="#364278" stroke-width="3" stroke-linecap="round" stroke-linejoin="round" stroke-dasharray="4 10"/>
</svg>
